<svg width="1494" height="902" viewBox="0 0 1494 902" fill="none" xmlns="http://www.w3.org/2000/svg">
<path d="M36.8019 187.424C36.8019 193.315 41.5776 198.091 47.4686 198.091C53.3596 198.091 58.1353 193.315 58.1353 187.424C58.1353 181.533 53.3596 176.757 47.4686 176.757C41.5776 176.757 36.8019 181.533 36.8019 187.424ZM422.811 187.424V189.424H423.531L424.086 188.965L422.811 187.424ZM486.093 135.052V133.052H485.373L484.818 133.511L486.093 135.052ZM578.2 135.052C578.2 140.943 582.975 145.719 588.866 145.719C594.757 145.719 599.533 140.943 599.533 135.052C599.533 129.161 594.757 124.386 588.866 124.386C582.975 124.386 578.2 129.161 578.2 135.052ZM47.4686 189.424H422.811V185.424H47.4686V189.424ZM424.086 188.965L487.368 136.593L484.818 133.511L421.536 185.883L424.086 188.965ZM486.093 137.052H588.866V133.052H486.093V137.052Z" fill="#5C9EAD" fill-opacity="0.75"/>
<path d="M35.5765 126.856C35.5765 132.747 40.3522 137.523 46.2432 137.523C52.1343 137.523 56.9099 132.747 56.9099 126.856C56.9099 120.965 52.1343 116.19 46.2432 116.19C40.3522 116.19 35.5765 120.965 35.5765 126.856ZM418.447 126.856V128.856H419.167L419.722 128.397L418.447 126.856ZM481.729 74.4846V72.4846H481.009L480.454 72.9438L481.729 74.4846ZM577.988 74.4846C577.988 80.3757 582.764 85.1513 588.655 85.1513C594.546 85.1513 599.321 80.3757 599.321 74.4846C599.321 68.5936 594.546 63.818 588.655 63.818C582.764 63.818 577.988 68.5936 577.988 74.4846ZM46.2432 128.856H418.447V124.856H46.2432V128.856ZM419.722 128.397L483.005 76.0254L480.454 72.9438L417.172 125.315L419.722 128.397ZM481.729 76.4846H588.655V72.4846H481.729V76.4846Z" fill="#5C9EAD" fill-opacity="0.75"/>
<path d="M36.1892 66.2881C36.1892 72.1791 40.9649 76.9548 46.8559 76.9548C52.7469 76.9548 57.5226 72.1791 57.5226 66.2881C57.5226 60.3971 52.7469 55.6214 46.8559 55.6214C40.9649 55.6214 36.1892 60.3971 36.1892 66.2881ZM408.627 66.2881V68.2881H409.347L409.902 67.8289L408.627 66.2881ZM471.91 13.9165V11.9165H471.189L470.634 12.3757L471.91 13.9165ZM578.527 13.9165C578.527 19.8075 583.302 24.5832 589.193 24.5832C595.084 24.5832 599.86 19.8075 599.86 13.9165C599.86 8.02547 595.084 3.24984 589.193 3.24984C583.302 3.24984 578.527 8.02547 578.527 13.9165ZM46.8559 68.2881H408.627V64.2881H46.8559V68.2881ZM409.902 67.8289L473.185 15.4573L470.634 12.3757L407.352 64.7473L409.902 67.8289ZM471.91 15.9165H589.193V11.9165H471.91V15.9165Z" fill="#5C9EAD" fill-opacity="0.75"/>
<path d="M49.3851 516.638C49.3851 522.529 54.1607 527.305 60.0517 527.305C65.9428 527.305 70.7184 522.529 70.7184 516.638C70.7184 510.747 65.9428 505.971 60.0517 505.971C54.1607 505.971 49.3851 510.747 49.3851 516.638ZM446.428 516.638V518.638H447.125L447.671 518.205L446.428 516.638ZM513.124 463.749V461.749H512.427L511.881 462.182L513.124 463.749ZM615.15 463.749C615.15 469.64 619.926 474.416 625.817 474.416C631.708 474.416 636.484 469.64 636.484 463.749C636.484 457.858 631.708 453.082 625.817 453.082C619.926 453.082 615.15 457.858 615.15 463.749ZM60.0517 518.638H446.428V514.638H60.0517V518.638ZM447.671 518.205L514.367 465.316L511.881 462.182L445.185 515.071L447.671 518.205ZM513.124 465.749H625.817V461.749H513.124V465.749Z" fill="#5C9EAD" fill-opacity="0.75"/>
<path d="M49.3851 516.638C49.3851 510.747 54.1607 505.971 60.0517 505.971C65.9428 505.971 70.7184 510.747 70.7184 516.638C70.7184 522.529 65.9428 527.304 60.0517 527.304C54.1607 527.304 49.3851 522.529 49.3851 516.638ZM446.428 516.638V514.638H447.147L447.701 515.095L446.428 516.638ZM513.124 571.671V573.671H512.405L511.851 573.214L513.124 571.671ZM615.15 571.671C615.15 565.78 619.926 561.004 625.817 561.004C631.708 561.004 636.484 565.78 636.484 571.671C636.484 577.562 631.708 582.338 625.817 582.338C619.926 582.338 615.15 577.562 615.15 571.671ZM60.0517 514.638L446.428 514.638V518.638L60.0517 518.638V514.638ZM447.701 515.095L514.397 570.128L511.851 573.214L445.155 518.18L447.701 515.095ZM513.124 569.671H625.817V573.671H513.124V569.671Z" fill="#5C9EAD" fill-opacity="0.75"/>
<path d="M715.983 648.203C715.983 654.094 711.207 658.87 705.316 658.87C699.425 658.87 694.649 654.094 694.649 648.203C694.649 642.312 699.425 637.537 705.316 637.537C711.207 637.537 715.983 642.312 715.983 648.203ZM325.251 648.203V650.203H324.46L323.883 649.663L325.251 648.203ZM268.817 595.314V593.314H269.607L270.184 593.855L268.817 595.314ZM184.129 595.314C184.129 601.205 179.353 605.981 173.462 605.981C167.571 605.981 162.795 601.205 162.795 595.314C162.795 589.423 167.571 584.648 173.462 584.648C179.353 584.648 184.129 589.423 184.129 595.314ZM705.316 650.203H325.251V646.203H705.316V650.203ZM323.883 649.663L267.449 596.774L270.184 593.855L326.619 646.744L323.883 649.663ZM268.817 597.314H173.462V593.314H268.817V597.314Z" fill="#5C9EAD" fill-opacity="0.75"/>
<path d="M715.804 648.203C715.804 642.312 711.028 637.536 705.137 637.536C699.246 637.536 694.471 642.312 694.471 648.203C694.471 654.094 699.246 658.869 705.137 658.869C711.028 658.869 715.804 654.094 715.804 648.203ZM325.251 648.203V646.203H324.437L323.855 646.771L325.251 648.203ZM268.817 703.236V705.236H269.63L270.213 704.668L268.817 703.236ZM184.129 703.236C184.129 697.345 179.353 692.569 173.462 692.569C167.571 692.569 162.795 697.345 162.795 703.236C162.795 709.127 167.571 713.903 173.462 713.903C179.353 713.903 184.129 709.127 184.129 703.236ZM705.137 646.203L325.251 646.203V650.203L705.137 650.203V646.203ZM323.855 646.771L267.42 701.804L270.213 704.668L326.647 649.635L323.855 646.771ZM268.817 701.236H173.462V705.236H268.817V701.236Z" fill="#5C9EAD" fill-opacity="0.75"/>
<path d="M909.187 211.427C909.187 205.536 904.411 200.761 898.52 200.761C892.629 200.761 887.853 205.536 887.853 211.427C887.853 217.318 892.629 222.094 898.52 222.094C904.411 222.094 909.187 217.318 909.187 211.427ZM531.919 211.427V209.427H531.198L530.643 209.886L531.919 211.427ZM468.636 263.799V265.799H469.356L469.911 265.34L468.636 263.799ZM372.377 263.799C372.377 257.908 367.602 253.132 361.711 253.132C355.82 253.132 351.044 257.908 351.044 263.799C351.044 269.69 355.82 274.465 361.711 274.465C367.602 274.465 372.377 269.69 372.377 263.799ZM898.52 209.427L531.919 209.427V213.427L898.52 213.427V209.427ZM530.643 209.886L467.361 262.258L469.911 265.34L533.194 212.968L530.643 209.886ZM468.636 261.799H361.711V265.799H468.636V261.799Z" fill="#5C9EAD" fill-opacity="0.75"/>
<path d="M116.155 405.532C116.155 411.423 120.93 416.199 126.821 416.199C132.712 416.199 137.488 411.423 137.488 405.532C137.488 399.641 132.712 394.866 126.821 394.866C120.93 394.866 116.155 399.641 116.155 405.532ZM633.324 405.532C633.324 411.423 638.1 416.199 643.991 416.199C649.882 416.199 654.658 411.423 654.658 405.532C654.658 399.641 649.882 394.866 643.991 394.866C638.1 394.866 633.324 399.641 633.324 405.532ZM126.821 407.532H643.991V403.532H126.821V407.532Z" fill="#5C9EAD" fill-opacity="0.75"/>
<path d="M1468.31 635.987C1468.31 641.878 1473.08 646.654 1478.97 646.654C1484.86 646.654 1489.64 641.878 1489.64 635.987C1489.64 630.096 1484.86 625.321 1478.97 625.321C1473.08 625.321 1468.31 630.096 1468.31 635.987ZM1064.36 635.987L1063.09 637.533L1063.65 637.987H1064.36V635.987ZM1003.26 585.798L1004.53 584.252L1003.98 583.798H1003.26V585.798ZM787.474 585.798C787.474 591.689 792.25 596.465 798.141 596.465C804.032 596.465 808.808 591.689 808.808 585.798C808.808 579.907 804.032 575.131 798.141 575.131C792.25 575.131 787.474 579.907 787.474 585.798ZM1478.97 633.987H1064.36V637.987H1478.97V633.987ZM1065.63 634.442L1004.53 584.252L1001.99 587.343L1063.09 637.533L1065.63 634.442ZM1003.26 583.798H798.141V587.798H1003.26V583.798Z" fill="#5C9EAD" fill-opacity="0.75"/>
<path d="M1468.31 702.87C1468.31 708.761 1473.08 713.537 1478.97 713.537C1484.86 713.537 1489.64 708.761 1489.64 702.87C1489.64 696.979 1484.86 692.203 1478.97 692.203C1473.08 692.203 1468.31 696.979 1468.31 702.87ZM1064.36 702.87L1063.09 704.416L1063.65 704.87H1064.36V702.87ZM1003.26 652.681L1004.53 651.135L1003.98 650.681H1003.26V652.681ZM787.474 652.681C787.474 658.572 792.25 663.347 798.141 663.347C804.032 663.347 808.808 658.572 808.808 652.681C808.808 646.79 804.032 642.014 798.141 642.014C792.25 642.014 787.474 646.79 787.474 652.681ZM1478.97 700.87H1064.36V704.87H1478.97V700.87ZM1065.63 701.325L1004.53 651.135L1001.99 654.226L1063.09 704.416L1065.63 701.325ZM1003.26 650.681H798.141V654.681H1003.26V650.681Z" fill="#C7F0FF" fill-opacity="0.15"/>
<path d="M1471.58 781.777C1471.58 787.668 1476.35 792.444 1482.24 792.444C1488.14 792.444 1492.91 787.668 1492.91 781.777C1492.91 775.886 1488.14 771.111 1482.24 771.111C1476.35 771.111 1471.58 775.886 1471.58 781.777ZM1067.64 781.777L1066.37 783.323L1066.92 783.777H1067.64V781.777ZM1006.54 731.588L1007.81 730.042L1007.25 729.588H1006.54V731.588ZM790.747 731.588C790.747 737.479 795.523 742.255 801.414 742.255C807.305 742.255 812.081 737.479 812.081 731.588C812.081 725.697 807.305 720.921 801.414 720.921C795.523 720.921 790.747 725.697 790.747 731.588ZM1482.24 779.777H1067.64V783.777H1482.24V779.777ZM1068.91 780.232L1007.81 730.042L1005.27 733.133L1066.37 783.323L1068.91 780.232ZM1006.54 729.588H801.414V733.588H1006.54V729.588Z" fill="#5C9EAD" fill-opacity="0.75"/>
<path d="M1472.57 65.7405C1472.57 71.6316 1477.34 76.4072 1483.23 76.4072C1489.12 76.4072 1493.9 71.6316 1493.9 65.7405C1493.9 59.8495 1489.12 55.0739 1483.23 55.0739C1477.34 55.0739 1472.57 59.8495 1472.57 65.7405ZM1001.32 64.106L1000.05 65.6514L1000.6 66.1035L1001.31 66.1059L1001.32 64.106ZM940.22 13.9165L941.49 12.3711L940.936 11.9165H940.22V13.9165ZM724.431 13.9165C724.431 19.8075 729.207 24.5832 735.098 24.5832C740.989 24.5832 745.765 19.8075 745.765 13.9165C745.765 8.02547 740.989 3.24984 735.098 3.24984C729.207 3.24984 724.431 8.02547 724.431 13.9165ZM1483.24 63.7405L1001.33 62.106L1001.31 66.1059L1483.23 67.7405L1483.24 63.7405ZM1002.59 62.5605L941.49 12.3711L938.951 15.462L1000.05 65.6514L1002.59 62.5605ZM940.22 11.9165H735.098V15.9165H940.22V11.9165Z" fill="#5C9EAD" fill-opacity="0.75"/>
<path d="M1472.57 124.676C1472.57 130.567 1477.34 135.342 1483.23 135.342C1489.12 135.342 1493.9 130.567 1493.9 124.676C1493.9 118.785 1489.12 114.009 1483.23 114.009C1477.34 114.009 1472.57 118.785 1472.57 124.676ZM1001.8 124.676L1000.53 126.221L1001.09 126.676H1001.8V124.676ZM940.701 74.4861L941.971 72.9406L941.417 72.4861H940.701V74.4861ZM723.91 74.4861C723.91 80.3771 728.685 85.1528 734.576 85.1528C740.467 85.1528 745.243 80.3771 745.243 74.4861C745.243 68.595 740.467 63.8194 734.576 63.8194C728.685 63.8194 723.91 68.595 723.91 74.4861ZM1483.23 122.676H1001.8V126.676H1483.23V122.676ZM1003.07 123.13L941.971 72.9406L939.432 76.0315L1000.53 126.221L1003.07 123.13ZM940.701 72.4861H734.576V76.4861H940.701V72.4861Z" fill="#5C9EAD" fill-opacity="0.75"/>
<path d="M1472.57 185.233C1472.57 191.124 1477.34 195.9 1483.23 195.9C1489.12 195.9 1493.9 191.124 1493.9 185.233C1493.9 179.342 1489.12 174.566 1483.23 174.566C1477.34 174.566 1472.57 179.342 1472.57 185.233ZM1004.69 185.233L1003.42 186.778L1003.97 187.233H1004.69V185.233ZM943.588 135.043L944.857 133.498L944.304 133.043H943.588V135.043ZM724.052 135.043C724.052 140.934 728.828 145.71 734.719 145.71C740.61 145.71 745.385 140.934 745.385 135.043C745.385 129.152 740.61 124.377 734.719 124.377C728.828 124.377 724.052 129.152 724.052 135.043ZM1483.23 183.233H1004.69V187.233H1483.23V183.233ZM1005.96 183.687L944.857 133.498L942.318 136.589L1003.42 186.778L1005.96 183.687ZM943.588 133.043H734.719V137.043H943.588V133.043Z" fill="#5C9EAD" fill-opacity="0.75"/>
<path d="M1485.21 573.315H1112.06L1055.33 527.49L1112.06 481.665H1485.21" stroke="#5C9EAD" stroke-opacity="0.75" stroke-width="4"/>
<path d="M831.169 426.697H749.207L692.471 380.872L749.207 335.047H830.549" stroke="#5C9EAD" stroke-opacity="0.75" stroke-width="4"/>
<path d="M750.824 335.047H830.703L887.438 380.872L830.703 426.697H750.669" stroke="#5C9EAD" stroke-opacity="0.75" stroke-width="4"/>
<path d="M111.911 702.164H0.132385M0.132385 594.242L111.29 594.242" stroke="#5C9EAD" stroke-opacity="0.75" stroke-width="4"/>
<path d="M31.566 594.242H111.444L168.18 648.204L111.444 702.165H31.4109" stroke="#5C9EAD" stroke-opacity="0.75" stroke-width="4"/>
<path d="M852.111 516.638C852.111 522.529 856.887 527.305 862.778 527.305C868.669 527.305 873.444 522.529 873.444 516.638C873.444 510.747 868.669 505.972 862.778 505.972C856.887 505.972 852.111 510.747 852.111 516.638ZM526.31 516.638C526.31 522.529 531.085 527.305 536.976 527.305C542.867 527.305 547.643 522.529 547.643 516.638C547.643 510.747 542.867 505.972 536.976 505.972C531.085 505.972 526.31 510.747 526.31 516.638ZM862.778 514.638H536.976V518.638H862.778V514.638Z" fill="#5C9EAD" fill-opacity="0.75"/>
<path d="M1136.31 263.913C1136.3 269.804 1141.08 274.582 1146.97 274.586C1152.86 274.589 1157.64 269.816 1157.64 263.925C1157.64 258.034 1152.87 253.256 1146.98 253.252C1141.09 253.249 1136.31 258.022 1136.31 263.913ZM933.803 263.793C933.799 269.684 938.572 274.462 944.463 274.465C950.354 274.469 955.133 269.696 955.136 263.805C955.14 257.914 950.367 253.136 944.476 253.132C938.585 253.129 933.806 257.901 933.803 263.793ZM1146.98 261.919L944.471 261.799L944.468 265.799L1146.97 265.919L1146.98 261.919Z" fill="#5C9EAD" fill-opacity="0.75"/>
<path d="M446.404 585.798C446.404 591.689 451.179 596.465 457.07 596.465C462.962 596.465 467.737 591.689 467.737 585.798C467.737 579.907 462.962 575.131 457.07 575.131C451.179 575.131 446.404 579.907 446.404 585.798ZM332.268 585.798C332.268 591.689 337.043 596.465 342.934 596.465C348.825 596.465 353.601 591.689 353.601 585.798C353.601 579.907 348.825 575.131 342.934 575.131C337.043 575.131 332.268 579.907 332.268 585.798ZM457.07 583.798H342.934V587.798H457.07V583.798Z" fill="#5C9EAD" fill-opacity="0.75"/>
<path d="M401.741 463.749C401.741 469.64 406.517 474.416 412.408 474.416C418.299 474.416 423.075 469.64 423.075 463.749C423.075 457.858 418.299 453.082 412.408 453.082C406.517 453.082 401.741 457.858 401.741 463.749ZM75.9399 463.749C75.9399 469.64 80.7155 474.416 86.6066 474.416C92.4976 474.416 97.2732 469.64 97.2732 463.749C97.2732 457.858 92.4976 453.082 86.6066 453.082C80.7155 453.082 75.9399 457.858 75.9399 463.749ZM412.408 461.749H86.6066V465.749H412.408V461.749Z" fill="#C7F0FF" fill-opacity="0.15"/>
<path d="M1456.96 527.49C1456.96 533.381 1461.74 538.157 1467.63 538.157C1473.52 538.157 1478.3 533.381 1478.3 527.49C1478.3 521.599 1473.52 516.824 1467.63 516.824C1461.74 516.824 1456.96 521.599 1456.96 527.49ZM1131.16 527.49C1131.16 533.381 1135.94 538.157 1141.83 538.157C1147.72 538.157 1152.5 533.381 1152.5 527.49C1152.5 521.599 1147.72 516.824 1141.83 516.824C1135.94 516.824 1131.16 521.599 1131.16 527.49ZM1467.63 525.49H1141.83V529.49H1467.63V525.49Z" fill="#C7F0FF" fill-opacity="0.15"/>
<path d="M1384.31 405.532C1384.31 411.423 1389.09 416.199 1394.98 416.199C1400.87 416.199 1405.65 411.423 1405.65 405.532C1405.65 399.641 1400.87 394.866 1394.98 394.866C1389.09 394.866 1384.31 399.641 1384.31 405.532ZM969.459 405.532V403.532H968.74L968.185 403.99L969.459 405.532ZM888.304 463.749C888.304 469.64 893.079 474.415 898.97 474.415C904.861 474.415 909.637 469.64 909.637 463.749C909.637 457.858 904.861 453.082 898.97 453.082C893.079 453.082 888.304 457.858 888.304 463.749ZM1394.98 403.532H969.459V407.532H1394.98V403.532ZM968.185 403.99L897.697 462.207L900.244 465.291L970.733 407.074L968.185 403.99Z" fill="#5C9EAD" fill-opacity="0.75"/>
<path d="M1027.6 444.224C1027.6 450.115 1032.37 454.89 1038.26 454.89C1044.16 454.89 1048.93 450.115 1048.93 444.224C1048.93 438.333 1044.16 433.557 1038.26 433.557C1032.37 433.557 1027.6 438.333 1027.6 444.224ZM942.135 516.638C942.135 522.529 946.91 527.305 952.801 527.305C958.692 527.305 963.468 522.529 963.468 516.638C963.468 510.747 958.692 505.971 952.801 505.971C946.91 505.971 942.135 510.747 942.135 516.638ZM1036.97 442.698L951.508 515.112L954.094 518.164L1039.56 445.75L1036.97 442.698Z" fill="#5C9EAD" fill-opacity="0.75"/>
<path d="M409.962 335.046C409.962 340.937 414.738 345.713 420.629 345.713C426.52 345.713 431.296 340.937 431.296 335.046C431.296 329.155 426.52 324.38 420.629 324.38C414.738 324.38 409.962 329.155 409.962 335.046ZM512.279 335.046V337.046H513.108L513.693 336.461L512.279 335.046ZM566.833 280.493V278.493H566.005L565.419 279.078L566.833 280.493ZM852.695 280.493L853.975 278.956L853.419 278.493H852.695V280.493ZM918.159 335.046L916.879 336.583L917.435 337.046H918.159V335.046ZM1154.08 335.046C1154.08 340.937 1158.85 345.713 1164.74 345.713C1170.63 345.713 1175.41 340.937 1175.41 335.046C1175.41 329.155 1170.63 324.38 1164.74 324.38C1158.85 324.38 1154.08 329.155 1154.08 335.046ZM420.629 337.046H512.279V333.046H420.629V337.046ZM513.693 336.461L568.247 281.907L565.419 279.078L510.865 333.632L513.693 336.461ZM566.833 282.493H852.695V278.493H566.833V282.493ZM851.414 282.029L916.879 336.583L919.44 333.51L853.975 278.956L851.414 282.029ZM918.159 337.046H1164.74V333.046H918.159V337.046Z" fill="#5C9EAD" fill-opacity="0.75"/>
<circle cx="662.954" cy="135.052" r="10.5822" fill="#5C9EAD" fill-opacity="0.75"/>
<circle cx="1056.3" cy="527.22" r="10.5822" fill="#5C9EAD" fill-opacity="0.75"/>
<circle cx="662.954" cy="74.4862" r="13.2394" fill="#5C9EAD" fill-opacity="0.75"/>
<circle cx="662.954" cy="135.044" r="13.2394" fill="#5C9EAD" fill-opacity="0.75"/>
<circle cx="662.954" cy="13.9166" r="13.2394" fill="#5C9EAD" fill-opacity="0.75"/>
<circle cx="86.6067" cy="324.464" r="10.5822" fill="#C7F0FF" fill-opacity="0.15"/>
<circle cx="86.6066" cy="263.897" r="10.5822" fill="#C7F0FF" fill-opacity="0.15"/>
<circle cx="156.25" cy="324.464" r="10.5822" fill="#C7F0FF" fill-opacity="0.15"/>
<circle cx="156.25" cy="263.897" r="10.5822" fill="#C7F0FF" fill-opacity="0.15"/>
<circle cx="225.895" cy="324.464" r="10.5822" fill="#C7F0FF" fill-opacity="0.15"/>
<circle cx="225.895" cy="263.897" r="10.5822" fill="#C7F0FF" fill-opacity="0.15"/>
<circle cx="630.984" cy="353.414" r="10.5822" fill="#C7F0FF" fill-opacity="0.15"/>
<circle cx="677.039" cy="318.352" r="10.5822" fill="#C7F0FF" fill-opacity="0.15"/>
<circle cx="563.765" cy="353.414" r="10.5822" fill="#C7F0FF" fill-opacity="0.15"/>
<circle cx="609.82" cy="318.352" r="10.5822" fill="#C7F0FF" fill-opacity="0.15"/>
<circle cx="357.094" cy="707.136" r="10.5822" fill="#C7F0FF" fill-opacity="0.15"/>
<circle cx="426.738" cy="707.136" r="10.5822" fill="#C7F0FF" fill-opacity="0.15"/>
<circle cx="496.383" cy="707.136" r="10.5822" fill="#C7F0FF" fill-opacity="0.15"/>
<circle cx="566.027" cy="708.951" r="10.5822" fill="#C7F0FF" fill-opacity="0.15"/>
<circle cx="635.671" cy="708.951" r="10.5822" fill="#C7F0FF" fill-opacity="0.15"/>
<circle cx="705.316" cy="708.951" r="10.5822" fill="#C7F0FF" fill-opacity="0.15"/>
<circle cx="705.316" cy="648.383" r="10.5822" fill="#C7F0FF" fill-opacity="0.15"/>
<circle cx="563.765" cy="830.086" r="10.5822" fill="#C7F0FF" fill-opacity="0.15"/>
<circle cx="563.765" cy="769.518" r="10.5822" fill="#C7F0FF" fill-opacity="0.15"/>
<circle cx="633.409" cy="830.086" r="10.5822" fill="#C7F0FF" fill-opacity="0.15"/>
<circle cx="633.409" cy="769.518" r="10.5822" fill="#C7F0FF" fill-opacity="0.15"/>
<circle cx="703.054" cy="830.086" r="10.5822" fill="#C7F0FF" fill-opacity="0.15"/>
<circle cx="703.054" cy="769.518" r="10.5822" fill="#C7F0FF" fill-opacity="0.15"/>
<circle cx="361.403" cy="830.086" r="10.5822" fill="#C7F0FF" fill-opacity="0.15"/>
<circle cx="361.403" cy="769.518" r="10.5822" fill="#C7F0FF" fill-opacity="0.15"/>
<circle cx="431.047" cy="830.086" r="10.5822" fill="#C7F0FF" fill-opacity="0.15"/>
<circle cx="431.047" cy="769.518" r="10.5822" fill="#C7F0FF" fill-opacity="0.15"/>
<circle cx="500.692" cy="830.086" r="10.5822" fill="#C7F0FF" fill-opacity="0.15"/>
<circle cx="500.692" cy="769.518" r="10.5822" fill="#C7F0FF" fill-opacity="0.15"/>
<circle cx="564.517" cy="890.654" r="10.5822" fill="#C7F0FF" fill-opacity="0.15"/>
<circle cx="634.161" cy="890.654" r="10.5822" fill="#C7F0FF" fill-opacity="0.15"/>
<circle cx="703.805" cy="890.654" r="10.5822" fill="#C7F0FF" fill-opacity="0.15"/>
<circle cx="362.155" cy="890.654" r="10.5822" fill="#C7F0FF" fill-opacity="0.15"/>
<circle cx="431.799" cy="890.654" r="10.5822" fill="#C7F0FF" fill-opacity="0.15"/>
<circle cx="501.443" cy="890.654" r="10.5822" fill="#C7F0FF" fill-opacity="0.15"/>
<circle cx="1280.85" cy="294.892" r="10.5822" fill="#C7F0FF" fill-opacity="0.15"/>
<circle cx="1280.85" cy="234.324" r="10.5822" fill="#C7F0FF" fill-opacity="0.15"/>
<circle cx="1350.5" cy="294.892" r="10.5822" fill="#C7F0FF" fill-opacity="0.15"/>
<circle cx="1350.5" cy="234.324" r="10.5822" fill="#C7F0FF" fill-opacity="0.15"/>
<circle cx="1420.14" cy="294.892" r="10.5822" fill="#C7F0FF" fill-opacity="0.15"/>
<circle cx="1420.14" cy="234.324" r="10.5822" fill="#C7F0FF" fill-opacity="0.15"/>
<circle cx="1280.85" cy="357.274" r="10.5822" fill="#C7F0FF" fill-opacity="0.15"/>
<circle cx="1350.5" cy="357.274" r="10.5822" fill="#C7F0FF" fill-opacity="0.15"/>
<circle cx="1420.14" cy="357.274" r="10.5822" fill="#C7F0FF" fill-opacity="0.15"/>
</svg>
