<svg width="494" height="543" viewBox="0 0 494 543" fill="none" xmlns="http://www.w3.org/2000/svg">
<ellipse cx="248" cy="300.316" rx="239.283" ry="240.841" fill="#FBFFF1"/>
<g filter="url(#filter0_d_417_582)">
<path d="M66.8444 161.661L4.99814 137.811L14.5551 126.094L69.1154 147.485L64.3369 153.344L32.9295 103.568L41.4625 93.1063L96.0797 114.428L91.4719 120.077L59.8369 70.5798L68.6543 59.7698L104.446 115.561L94.5482 127.696L46.5398 109.094L49.1566 105.886L76.7427 149.526L66.8444 161.661Z" fill="#E39774"/>
</g>
<g filter="url(#filter1_d_417_582)">
<path d="M165.775 14.0634L179.555 9.30078L200.134 68.8449L186.354 73.6075L165.775 14.0634ZM159.304 82.9563L145.524 87.7188L124.945 28.1747L138.725 23.4121L159.304 82.9563ZM178.937 48.8416L149.846 58.8959L145.818 47.2423L174.91 37.188L178.937 48.8416Z" fill="#E39774"/>
</g>
<g filter="url(#filter2_d_417_582)">
<path d="M231.305 63.6092L264.309 3.04349L278.664 4.1894L301.731 69.2313L286.48 68.0138L267.939 10.7367L273.68 11.1951L246.198 64.7981L231.305 63.6092ZM246.375 51.2693L251.114 40.5423L283.411 43.1206L286.477 54.4706L246.375 51.2693Z" fill="#E39774"/>
</g>
<g filter="url(#filter3_d_417_582)">
<path d="M357.13 94.5445C352.843 92.2557 349.214 89.4343 346.243 86.0802C343.354 82.7014 341.252 78.9947 339.937 74.96C338.622 70.9254 338.13 66.7517 338.46 62.4389C338.843 58.1543 340.15 53.9213 342.382 49.7398C344.615 45.5583 347.404 42.1165 350.751 39.4143C354.151 36.7403 357.893 34.8271 361.977 33.6746C366.114 32.5503 370.376 32.275 374.763 32.8485C379.178 33.369 383.555 34.7878 387.896 37.1048C392.712 39.6761 396.6 42.84 399.56 46.5965C402.601 50.3283 404.583 54.5149 405.506 59.1565L393.18 62.3704C392.433 59.1831 391.177 56.4385 389.414 54.1366C387.678 51.7818 385.434 49.8697 382.682 48.4004C380.088 47.0159 377.48 46.1678 374.858 45.8561C372.236 45.5445 369.707 45.7588 367.271 46.499C364.836 47.2393 362.589 48.4543 360.53 50.144C358.525 51.8621 356.816 54.0443 355.403 56.6908C353.99 59.3373 353.128 61.9717 352.816 64.5939C352.558 67.2444 352.799 69.7875 353.539 72.223C354.279 74.6586 355.508 76.8791 357.226 78.8845C358.944 80.8899 361.1 82.5849 363.694 83.9694C366.446 85.4387 369.269 86.2657 372.163 86.4504C375.085 86.5821 378.093 86.0451 381.185 84.8392L385.373 96.8691C381.003 98.685 376.407 99.3944 371.586 98.9972C366.818 98.6283 362 97.144 357.13 94.5445Z" fill="#E39774"/>
</g>
<g filter="url(#filter4_d_417_582)">
<path d="M422.892 128.986L436.104 118.529L479.488 124.546L488.919 137.717L449.314 132.648L437.573 131.092L422.892 128.986ZM403.586 126.759L454.808 90.0805L463.244 101.862L412.023 138.54L403.586 126.759ZM428.685 161.81L437.956 127.608L451.925 129.338L438.588 175.639L428.685 161.81Z" fill="#E39774"/>
</g>
<rect x="163.126" y="260.974" width="169.417" height="169.417" rx="15" fill="#002776"/>
<rect x="176.897" y="274.745" width="141.876" height="141.876" rx="15" fill="#C7F0FF"/>
<path d="M124.226 333.435C134.498 343.707 147.986 349.584 162.582 349.584V332.965C162.582 332.965 157.469 332.5 155.678 332.102C152.264 331.344 148.952 328.921 145.867 327.378C141.43 325.16 137.444 322.004 132.786 320.192C129.988 319.104 124.944 316.178 122.248 318.335C117.907 321.807 121.042 330.25 124.226 333.435Z" fill="#002776" stroke="#002776" stroke-width="3" stroke-linecap="round"/>
<path d="M218.989 335.026H254.599" stroke="#002776" stroke-width="3" stroke-linecap="round"/>
<path d="M254.599 337.207C252.517 340.62 249.037 346.868 244.425 347.381C240.436 347.824 234.977 349.281 230.98 347.744C228.475 346.781 224.392 346.322 222.623 344.111C220.798 341.83 220.469 339.426 218.989 337.207" stroke="#002776" stroke-width="3" stroke-linecap="round"/>
<path d="M201.547 318.311C206.991 316.569 212.512 314.079 215.355 319.765" stroke="#002776" stroke-width="3" stroke-linecap="round"/>
<path d="M256.779 320.492C261.151 317.933 267.228 314.499 269.861 319.765" stroke="#002776" stroke-width="3" stroke-linecap="round"/>
<path d="M371.442 349.723C361.17 339.45 347.682 333.573 333.086 333.573L323.158 347.44C324.989 347.552 338.199 350.657 339.99 351.055C343.404 351.813 346.716 354.236 349.801 355.779C354.238 357.997 358.224 361.154 362.882 362.965C365.68 364.053 370.724 366.979 373.42 364.822C377.761 361.35 374.626 352.907 371.442 349.723Z" fill="#002776" stroke="#002776" stroke-width="3" stroke-linecap="round"/>
<path d="M152.015 421.539C57.192 436.656 39.3269 369.318 13.2163 344.582C21.4158 412.139 100.086 557.33 280.183 539.798C349.97 533.004 462.101 464.93 482.452 349.101C457.967 337.975 398.828 319.296 358.151 333.588C307.304 351.453 246.837 406.423 152.015 421.539Z" fill="#407C59" stroke="#214E34" stroke-width="2"/>
<path d="M323.25 430.391C340.204 442.259 359.373 451.954 379.669 456.705C391.302 459.427 402.151 460.42 414.021 460.42" stroke="#214E34" stroke-width="3" stroke-linecap="round"/>
<path d="M253.194 459.25C268.008 473.7 285.359 486.364 304.621 494.33C315.662 498.896 326.208 501.629 337.922 503.546" stroke="#214E34" stroke-width="3" stroke-linecap="round"/>
<path d="M164.062 466.1C176.535 482.613 191.785 497.742 209.631 508.513C219.86 514.687 229.876 518.974 241.168 522.63" stroke="#214E34" stroke-width="3" stroke-linecap="round"/>
<defs>
<filter id="filter0_d_417_582" x="0.998138" y="59.7698" width="120.475" height="125.862" filterUnits="userSpaceOnUse" color-interpolation-filters="sRGB">
<feFlood flood-opacity="0" result="BackgroundImageFix"/>
<feColorMatrix in="SourceAlpha" type="matrix" values="0 0 0 0 0 0 0 0 0 0 0 0 0 0 0 0 0 0 127 0" result="hardAlpha"/>
<feOffset dy="4"/>
<feGaussianBlur stdDeviation="2"/>
<feComposite in2="hardAlpha" operator="out"/>
<feColorMatrix type="matrix" values="0 0 0 0 0 0 0 0 0 0 0 0 0 0 0 0 0 0 0.25 0"/>
<feBlend mode="normal" in2="BackgroundImageFix" result="effect1_dropShadow_417_582"/>
<feBlend mode="normal" in="SourceGraphic" in2="effect1_dropShadow_417_582" result="shape"/>
</filter>
<filter id="filter1_d_417_582" x="120.945" y="9.30078" width="83.1895" height="86.418" filterUnits="userSpaceOnUse" color-interpolation-filters="sRGB">
<feFlood flood-opacity="0" result="BackgroundImageFix"/>
<feColorMatrix in="SourceAlpha" type="matrix" values="0 0 0 0 0 0 0 0 0 0 0 0 0 0 0 0 0 0 127 0" result="hardAlpha"/>
<feOffset dy="4"/>
<feGaussianBlur stdDeviation="2"/>
<feComposite in2="hardAlpha" operator="out"/>
<feColorMatrix type="matrix" values="0 0 0 0 0 0 0 0 0 0 0 0 0 0 0 0 0 0 0.25 0"/>
<feBlend mode="normal" in2="BackgroundImageFix" result="effect1_dropShadow_417_582"/>
<feBlend mode="normal" in="SourceGraphic" in2="effect1_dropShadow_417_582" result="shape"/>
</filter>
<filter id="filter2_d_417_582" x="227.305" y="0.80896" width="83.4393" height="76.4224" filterUnits="userSpaceOnUse" color-interpolation-filters="sRGB">
<feFlood flood-opacity="0" result="BackgroundImageFix"/>
<feColorMatrix in="SourceAlpha" type="matrix" values="0 0 0 0 0 0 0 0 0 0 0 0 0 0 0 0 0 0 127 0" result="hardAlpha"/>
<feOffset dy="4"/>
<feGaussianBlur stdDeviation="2"/>
<feComposite in2="hardAlpha" operator="out"/>
<feColorMatrix type="matrix" values="0 0 0 0 0 0 0 0 0 0 0 0 0 0 0 0 0 0 0.25 0"/>
<feBlend mode="normal" in2="BackgroundImageFix" result="effect1_dropShadow_417_582"/>
<feBlend mode="normal" in="SourceGraphic" in2="effect1_dropShadow_417_582" result="shape"/>
</filter>
<filter id="filter3_d_417_582" x="323.039" y="20.9988" width="91.7221" height="93.7947" filterUnits="userSpaceOnUse" color-interpolation-filters="sRGB">
<feFlood flood-opacity="0" result="BackgroundImageFix"/>
<feColorMatrix in="SourceAlpha" type="matrix" values="0 0 0 0 0 0 0 0 0 0 0 0 0 0 0 0 0 0 127 0" result="hardAlpha"/>
<feOffset dy="4"/>
<feGaussianBlur stdDeviation="2"/>
<feComposite in2="hardAlpha" operator="out"/>
<feColorMatrix type="matrix" values="0 0 0 0 0 0 0 0 0 0 0 0 0 0 0 0 0 0 0.25 0"/>
<feBlend mode="normal" in2="BackgroundImageFix" result="effect1_dropShadow_417_582"/>
<feBlend mode="normal" in="SourceGraphic" in2="effect1_dropShadow_417_582" result="shape"/>
</filter>
<filter id="filter4_d_417_582" x="399.586" y="90.0806" width="94.2238" height="93.5589" filterUnits="userSpaceOnUse" color-interpolation-filters="sRGB">
<feFlood flood-opacity="0" result="BackgroundImageFix"/>
<feColorMatrix in="SourceAlpha" type="matrix" values="0 0 0 0 0 0 0 0 0 0 0 0 0 0 0 0 0 0 127 0" result="hardAlpha"/>
<feOffset dy="4"/>
<feGaussianBlur stdDeviation="2"/>
<feComposite in2="hardAlpha" operator="out"/>
<feColorMatrix type="matrix" values="0 0 0 0 0 0 0 0 0 0 0 0 0 0 0 0 0 0 0.25 0"/>
<feBlend mode="normal" in2="BackgroundImageFix" result="effect1_dropShadow_417_582"/>
<feBlend mode="normal" in="SourceGraphic" in2="effect1_dropShadow_417_582" result="shape"/>
</filter>
</defs>
</svg>
