<svg width="199" height="176" viewBox="0 0 199 176" fill="none" xmlns="http://www.w3.org/2000/svg">
<path d="M20.7937 52.6559L19.4257 37.9121L31.5181 37.7566L33.053 51.0097L20.7937 52.6559Z" fill="#E39774"/>
<path d="M6.39135 41.9872L8.47883 54.799M15.2798 43.4855L16.1586 49.1182M19.4257 37.9121L20.7937 52.6559L33.053 51.0097L31.5181 37.7566L19.4257 37.9121Z" stroke="#E39774" stroke-width="10" stroke-linecap="square"/>
<path d="M35 118.5L26.5 50.9999" stroke="#E39774" stroke-width="7"/>
<path d="M33 34.8021L41.3852 33.4096L44.385 36.2135" stroke="#E39774" stroke-width="5" stroke-linecap="square"/>
<rect x="54.7686" y="42" width="113.328" height="113.328" rx="15" fill="#002776"/>
<rect x="63.9802" y="51.2115" width="94.9048" height="94.9048" rx="15" fill="#C7F0FF"/>
<path d="M168.46 90.5632C178.224 90.5632 187.246 94.4949 194.117 101.366C196.247 103.496 198.344 109.144 195.44 111.467C193.637 112.91 190.263 110.952 188.391 110.225C185.275 109.013 182.609 106.901 179.641 105.417C177.577 104.385 175.362 102.765 173.078 102.257C171.88 101.991 168.205 101.744 169.432 101.744" stroke="#002776" stroke-width="3" stroke-linecap="round"/>
<path d="M29.3027 91.8655C36.1228 98.6856 45.0777 102.588 54.7685 102.588V91.5534C54.7685 91.5534 51.3738 91.2452 50.1847 90.9809C47.9182 90.4772 45.7191 88.8687 43.6708 87.8446C40.7252 86.3718 38.0787 84.276 34.9856 83.0731C33.1282 82.3508 29.7791 80.4081 27.9892 81.84C25.1072 84.1456 27.1885 89.7514 29.3027 91.8655Z" fill="#002776" stroke="#002776" stroke-width="3" stroke-linecap="round"/>
<path d="M54.4045 101.274C44.6409 101.274 35.6188 97.342 28.7475 90.4707C26.6175 88.3407 24.5205 82.6929 27.4241 80.37C29.2274 78.9273 32.6017 80.8845 34.473 81.6123C37.5894 82.8242 40.2557 84.9358 43.2234 86.4196C45.2871 87.4514 47.5028 89.072 49.7862 89.5795C50.9843 89.8457 54.6595 90.0926 53.4322 90.0926" stroke="#002776" stroke-width="3" stroke-linecap="round"/>
<path d="M193.562 100.595C186.742 93.7744 177.787 89.8721 168.096 89.8721V100.907C168.096 100.907 171.491 101.215 172.68 101.479C174.947 101.983 177.146 103.591 179.194 104.615C182.14 106.088 184.786 108.184 187.879 109.387C189.737 110.109 193.086 112.052 194.876 110.62C197.758 108.314 195.676 102.709 193.562 100.595Z" fill="#002776" stroke="#002776" stroke-width="3" stroke-linecap="round"/>
<path d="M80.4429 164.225C81.2408 161.58 81.3601 158.95 81.9283 156.191L91.1649 156.652C91.1649 159.994 92.5618 167.303 89.9495 169.777C86.0843 173.439 81.4808 173.692 76.3378 173.692C74.1139 173.692 71.2334 172.781 71.2334 170.238C71.2334 167.181 72.7786 167.616 75.1225 166.681C76.5755 166.102 79.836 166.238 80.4429 164.225Z" fill="#002776" stroke="#002776" stroke-width="3" stroke-linecap="round"/>
<path d="M120.642 164.225C121.44 161.58 121.559 158.95 122.128 156.191L131.364 156.652C131.364 159.994 132.761 167.303 130.149 169.777C126.284 173.439 121.68 173.692 116.537 173.692C114.313 173.692 111.433 172.781 111.433 170.238C111.433 167.181 112.978 167.616 115.322 166.681C116.775 166.102 120.035 166.238 120.642 164.225Z" fill="#002776" stroke="#002776" stroke-width="3" stroke-linecap="round"/>
<path d="M92.137 91.5355H115.957" stroke="#002776" stroke-width="3" stroke-linecap="round"/>
<path d="M115.957 92.9939C114.565 95.2776 112.237 99.4569 109.152 99.7998C106.483 100.096 102.832 101.071 100.158 100.043C98.4824 99.3983 95.7513 99.0917 94.5676 97.6122C93.347 96.0864 93.1269 94.4788 92.137 92.9939" stroke="#002776" stroke-width="3" stroke-linecap="round"/>
<path d="M80.4697 80.3544C84.1111 79.1892 87.8046 77.5234 89.7063 81.3267" stroke="#002776" stroke-width="3" stroke-linecap="round"/>
<path d="M117.416 81.8129C120.34 80.101 124.405 77.8043 126.166 81.3267" stroke="#002776" stroke-width="3" stroke-linecap="round"/>
<path d="M104.83 40.3815L118.739 52.2042L134.376 61.722L150.054 70.6374L168.547 76.7155" stroke="#E39774" stroke-width="10" stroke-linecap="square"/>
<mask id="path-18-inside-1_5_29" fill="white">
<path d="M169.46 79.1865C175.234 69.2882 177.221 57.7251 174.986 47.0411C172.751 36.357 166.476 27.4271 157.542 22.2159C148.607 17.0047 137.746 15.939 127.346 19.2533C116.946 22.5676 107.859 29.9904 102.086 39.8887L135.773 59.5376L169.46 79.1865Z"/>
</mask>
<path d="M169.46 79.1865C175.234 69.2882 177.221 57.7251 174.986 47.0411C172.751 36.357 166.476 27.4271 157.542 22.2159C148.607 17.0047 137.746 15.939 127.346 19.2533C116.946 22.5676 107.859 29.9904 102.086 39.8887L135.773 59.5376L169.46 79.1865Z" fill="#E39774" stroke="#E39774" stroke-width="2" mask="url(#path-18-inside-1_5_29)"/>
</svg>
