<svg width="58" height="57" viewBox="0 0 58 57" fill="none" xmlns="http://www.w3.org/2000/svg">
<path d="M24.7258 39.481C29.6613 39.9872 37.2039 38.469 43.2471 36.2667C44.892 35.6672 45.7762 34.0605 44.8333 32.5854C42.4988 28.9336 36.7776 23.2785 31.5615 20.2053C26.3157 17.6097 21.879 16.4449 17.9922 17.8021C14.3029 19.0903 12.2573 22.8766 11.5926 24.879C11.5251 25.0822 11.4823 25.2922 11.4549 25.5046C10.9093 29.7419 11.4445 31.8774 13.5113 34.0409C15.6296 36.2581 19.0804 38.9019 24.7258 39.481Z" fill="#214E34" stroke="#214E34" stroke-width="1.79543"/>
<path d="M14.3687 25.7012C16.6682 25.7537 19.0047 25.6972 21.2858 26.0198C24.1831 26.4295 26.9614 27.3867 29.7361 28.2816C31.9233 28.9871 33.9984 29.7619 36.0166 30.8292C36.8469 31.2684 37.6335 31.9424 38.4469 32.3726" stroke="#214E34" stroke-width="2.69314" stroke-linecap="round"/>
<path d="M13.9284 41.6832C17.8671 45.5602 25.4822 49.4924 32.2701 51.7858C34.1177 52.4101 36.0053 51.6289 36.2127 49.6897C36.726 44.8889 35.6895 35.9881 33.2944 29.6839C30.5409 23.7741 27.4944 19.6719 23.17 18.1453C19.0653 16.6962 14.65 18.5639 12.6777 19.8419C12.4775 19.9717 12.2941 20.1244 12.1224 20.2901C8.69732 23.5943 7.67558 25.8237 7.96608 29.144C8.26382 32.5468 9.42314 37.2485 13.9284 41.6832Z" fill="#407C59" stroke="#214E34" stroke-width="2"/>
<path d="M14.5189 22.49C16.4817 24.1369 18.5524 25.7148 20.3112 27.5837C22.545 29.9575 24.294 32.7244 26.0833 35.4347C27.4938 37.5711 28.7585 39.6899 29.7699 42.0232C30.186 42.9832 30.4006 44.117 30.8082 45.0575" stroke="#214E34" stroke-width="3" stroke-linecap="round"/>
</svg>
