<svg width="41" height="28" viewBox="0 0 41 28" fill="none" xmlns="http://www.w3.org/2000/svg">
<path d="M16.8788 26.1905C22.3881 26.6287 30.7493 24.746 37.4233 22.1397C39.2399 21.4303 40.1838 19.6185 39.0961 17.9997C36.4034 13.9922 29.8881 7.84 24.0011 4.55019C18.0931 1.79301 13.1225 0.608742 8.82844 2.219C4.75263 3.74743 2.57086 8.01617 1.8815 10.263C1.81152 10.4911 1.76919 10.726 1.74413 10.9633C1.24428 15.696 1.89462 18.0606 4.25141 20.4174C6.6668 22.8327 10.5771 25.6892 16.8788 26.1905Z" fill="#407C59" stroke="#214E34" stroke-width="2"/>
<path d="M4.99406 11.1081C7.55627 11.1081 10.1568 10.9857 12.7054 11.2869C15.9424 11.6695 19.0608 12.6648 22.1736 13.5909C24.6274 14.3208 26.9581 15.1309 29.2327 16.2683C30.1685 16.7362 31.0617 17.4668 31.9785 17.9252" stroke="#214E34" stroke-width="3" stroke-linecap="round"/>
</svg>
