<svg width="62" height="63" viewBox="0 0 62 63" fill="none" xmlns="http://www.w3.org/2000/svg">
<path d="M31 5.84449C39.2774 5.84449 40.2577 5.87599 43.5266 6.02513C46.549 6.16308 48.1904 6.66809 49.2829 7.09251C50.7298 7.65487 51.7626 8.32675 52.8473 9.41147C53.9321 10.4962 54.6039 11.529 55.1662 12.9759C55.5907 14.0684 56.0957 15.7098 56.2337 18.7321C56.3828 22.0011 56.4143 22.9815 56.4143 31.2589C56.4143 39.5362 56.3828 40.5166 56.2337 43.7854C56.0957 46.8079 55.5907 48.4493 55.1662 49.5418C54.6039 50.9887 53.9321 52.0215 52.8473 53.1062C51.7626 54.191 50.7298 54.8628 49.2829 55.4251C48.1904 55.8496 46.549 56.3546 43.5266 56.4926C40.2582 56.6417 39.2778 56.6732 31 56.6732C22.7221 56.6732 21.7417 56.6417 18.4734 56.4926C15.4509 56.3546 13.8095 55.8496 12.7171 55.4251C11.2701 54.8628 10.2373 54.191 9.15258 53.1062C8.06785 52.0215 7.39597 50.9887 6.83373 49.5418C6.4092 48.4493 5.90418 46.8079 5.76624 43.7856C5.61709 40.5166 5.58559 39.5362 5.58559 31.2589C5.58559 22.9815 5.61709 22.0011 5.76624 18.7323C5.90418 15.7098 6.4092 14.0684 6.83373 12.9759C7.39597 11.529 8.06785 10.4962 9.15258 9.41147C10.2373 8.32675 11.2701 7.65487 12.7171 7.09251C13.8095 6.66809 15.4509 6.16308 18.4732 6.02513C21.7422 5.87599 22.7226 5.84449 31 5.84449ZM31 0.258789C22.5808 0.258789 21.5252 0.294475 18.2188 0.44534C14.919 0.595959 12.6657 1.11993 10.6937 1.88631C8.65519 2.67854 6.92639 3.73853 5.20301 5.46191C3.47963 7.18529 2.41964 8.91409 1.62741 10.9526C0.861029 12.9246 0.337062 15.1779 0.186443 18.4777C0.0355781 21.784 1.52588e-05 22.8397 1.52588e-05 31.2589C1.52588e-05 39.678 0.0355781 40.7337 0.186443 44.04C0.337062 47.3398 0.861029 49.5931 1.62741 51.5651C2.41964 53.6035 3.47963 55.3324 5.20301 57.0558C6.92639 58.7792 8.65519 59.8392 10.6937 60.6314C12.6657 61.3978 14.919 61.9217 18.2188 62.0724C21.5252 62.2232 22.5808 62.2588 31 62.2588C39.4191 62.2588 40.4748 62.2232 43.7812 62.0724C47.0809 61.9217 49.3342 61.3978 51.3062 60.6314C53.3447 59.8392 55.0735 58.7792 56.7969 57.0558C58.5203 55.3324 59.5803 53.6036 60.3725 51.5651C61.1389 49.5931 61.6628 47.3398 61.8135 44.04C61.9643 40.7337 62 39.678 62 31.2589C62 22.8397 61.9643 21.784 61.8135 18.4777C61.6628 15.1779 61.1389 12.9246 60.3725 10.9526C59.5803 8.91409 58.5203 7.18529 56.7969 5.46191C55.0735 3.73853 53.3447 2.67854 51.3062 1.88631C49.3342 1.11993 47.0809 0.595959 43.7812 0.44534C40.4748 0.294475 39.4191 0.258789 31 0.258789ZM31 15.3399C22.2082 15.3399 15.081 22.4671 15.081 31.2589C15.081 40.0506 22.2082 47.1778 31 47.1778C39.7917 47.1778 46.9189 40.0506 46.9189 31.2589C46.9189 22.4671 39.7917 15.3399 31 15.3399ZM31 41.5922C25.293 41.5922 20.6666 36.9658 20.6666 31.2589C20.6666 25.5519 25.293 20.9255 31 20.9255C36.7069 20.9255 41.3334 25.5519 41.3334 31.2589C41.3334 36.9658 36.7069 41.5922 31 41.5922ZM51.2678 14.7109C51.2678 16.7655 49.6024 18.431 47.5479 18.431C45.4933 18.431 43.8278 16.7655 43.8278 14.7109C43.8278 12.6564 45.4933 10.991 47.5479 10.991C49.6024 10.991 51.2678 12.6564 51.2678 14.7109Z" fill="#002776"/>
</svg>
