<svg width="135" height="80" viewBox="0 0 135 80" fill="none" xmlns="http://www.w3.org/2000/svg">
<g filter="url(#filter0_i_417_586)">
<path d="M105.262 3.7538L74.4489 57.6468L102.667 67.1862L134.075 10.846C136.758 6.03264 133.28 0.106937 127.773 0.106937H111.538C110.263 0.105776 109.011 0.442644 107.908 1.08325C106.806 1.72385 105.893 2.6453 105.262 3.7538Z" fill="#5C9EAD"/>
</g>
<g filter="url(#filter1_i_417_586)">
<path d="M30.418 3.64687L59.9296 55.5007C60.2375 56.0435 60.4011 56.6562 60.4047 57.2803C60.4084 57.9043 60.252 58.5189 59.9505 59.0652L50.5014 76.1503C47.7698 81.0915 40.6753 81.1247 37.9055 76.2081L0.944548 10.7747C-1.77361 5.96011 1.70116 0 7.2259 0H24.1477C25.4215 8.64734e-05 26.6726 0.337526 27.7739 0.978045C28.8752 1.61856 29.7874 2.53935 30.418 3.64687Z" fill="#C7F0FF"/>
</g>
<g filter="url(#filter2_i_417_586)">
<path d="M80.6443 9.22477L108.087 57.4502L97.5845 76.2979C94.8394 81.2145 87.7707 81.239 84.9997 76.3311L51.134 16.3477C48.4158 11.5331 51.893 5.57299 57.419 5.57422H74.3764C75.6502 5.57486 76.9011 5.91295 78.002 6.55414C79.1029 7.19533 80.0146 8.11676 80.6443 9.22477Z" fill="#C7F0FF"/>
</g>
<defs>
<filter id="filter0_i_417_586" x="74.4489" y="0.106934" width="60.5505" height="71.0792" filterUnits="userSpaceOnUse" color-interpolation-filters="sRGB">
<feFlood flood-opacity="0" result="BackgroundImageFix"/>
<feBlend mode="normal" in="SourceGraphic" in2="BackgroundImageFix" result="shape"/>
<feColorMatrix in="SourceAlpha" type="matrix" values="0 0 0 0 0 0 0 0 0 0 0 0 0 0 0 0 0 0 127 0" result="hardAlpha"/>
<feOffset dy="4"/>
<feGaussianBlur stdDeviation="2"/>
<feComposite in2="hardAlpha" operator="arithmetic" k2="-1" k3="1"/>
<feColorMatrix type="matrix" values="0 0 0 0 0 0 0 0 0 0 0 0 0 0 0 0 0 0 0.25 0"/>
<feBlend mode="normal" in2="shape" result="effect1_innerShadow_417_586"/>
</filter>
<filter id="filter1_i_417_586" x="0.000305176" y="0" width="60.4045" height="83.876" filterUnits="userSpaceOnUse" color-interpolation-filters="sRGB">
<feFlood flood-opacity="0" result="BackgroundImageFix"/>
<feBlend mode="normal" in="SourceGraphic" in2="BackgroundImageFix" result="shape"/>
<feColorMatrix in="SourceAlpha" type="matrix" values="0 0 0 0 0 0 0 0 0 0 0 0 0 0 0 0 0 0 127 0" result="hardAlpha"/>
<feOffset dy="4"/>
<feGaussianBlur stdDeviation="2"/>
<feComposite in2="hardAlpha" operator="arithmetic" k2="-1" k3="1"/>
<feColorMatrix type="matrix" values="0 0 0 0 0 0 0 0 0 0 0 0 0 0 0 0 0 0 0.25 0"/>
<feBlend mode="normal" in2="shape" result="effect1_innerShadow_417_586"/>
</filter>
<filter id="filter2_i_417_586" x="50.1901" y="5.57422" width="57.8974" height="78.4244" filterUnits="userSpaceOnUse" color-interpolation-filters="sRGB">
<feFlood flood-opacity="0" result="BackgroundImageFix"/>
<feBlend mode="normal" in="SourceGraphic" in2="BackgroundImageFix" result="shape"/>
<feColorMatrix in="SourceAlpha" type="matrix" values="0 0 0 0 0 0 0 0 0 0 0 0 0 0 0 0 0 0 127 0" result="hardAlpha"/>
<feOffset dy="4"/>
<feGaussianBlur stdDeviation="2"/>
<feComposite in2="hardAlpha" operator="arithmetic" k2="-1" k3="1"/>
<feColorMatrix type="matrix" values="0 0 0 0 0 0 0 0 0 0 0 0 0 0 0 0 0 0 0.25 0"/>
<feBlend mode="normal" in2="shape" result="effect1_innerShadow_417_586"/>
</filter>
</defs>
</svg>
