<svg width="1494" height="969" viewBox="0 0 1494 969" fill="none" xmlns="http://www.w3.org/2000/svg">
<path d="M36.8053 255.042C36.8053 260.933 41.5809 265.709 47.472 265.709C53.363 265.709 58.1386 260.933 58.1386 255.042C58.1386 249.151 53.363 244.375 47.472 244.375C41.5809 244.375 36.8053 249.151 36.8053 255.042ZM422.814 255.042V257.042H423.535L424.089 256.583L422.814 255.042ZM486.097 202.67V200.67H485.376L484.822 201.13L486.097 202.67ZM578.203 202.67C578.203 208.561 582.979 213.337 588.87 213.337C594.761 213.337 599.536 208.561 599.536 202.67C599.536 196.779 594.761 192.004 588.87 192.004C582.979 192.004 578.203 196.779 578.203 202.67ZM47.472 257.042H422.814V253.042H47.472V257.042ZM424.089 256.583L487.372 204.211L484.822 201.13L421.539 253.501L424.089 256.583ZM486.097 204.67H588.87V200.67H486.097V204.67Z" fill="#5C9EAD" fill-opacity="0.75"/>
<path d="M35.5799 194.474C35.5799 200.365 40.3555 205.141 46.2466 205.141C52.1376 205.141 56.9132 200.365 56.9132 194.474C56.9132 188.583 52.1376 183.808 46.2466 183.808C40.3555 183.808 35.5799 188.583 35.5799 194.474ZM418.45 194.474V196.474H419.171L419.725 196.015L418.45 194.474ZM481.733 142.103V140.103H481.012L480.458 140.562L481.733 142.103ZM577.991 142.103C577.991 147.994 582.767 152.77 588.658 152.77C594.549 152.77 599.325 147.994 599.325 142.103C599.325 136.212 594.549 131.436 588.658 131.436C582.767 131.436 577.991 136.212 577.991 142.103ZM46.2466 196.474H418.45V192.474H46.2466V196.474ZM419.725 196.015L483.008 143.644L480.458 140.562L417.175 192.934L419.725 196.015ZM481.733 144.103H588.658V140.103H481.733V144.103Z" fill="#5C9EAD" fill-opacity="0.75"/>
<path d="M36.1926 133.906C36.1926 139.797 40.9682 144.573 46.8593 144.573C52.7503 144.573 57.5259 139.797 57.5259 133.906C57.5259 128.015 52.7503 123.24 46.8593 123.24C40.9682 123.24 36.1926 128.015 36.1926 133.906ZM408.63 133.906V135.906H409.351L409.906 135.447L408.63 133.906ZM471.913 81.5348V79.5348H471.193L470.638 79.994L471.913 81.5348ZM578.53 81.5348C578.53 87.4258 583.306 92.2015 589.197 92.2015C595.088 92.2015 599.863 87.4258 599.863 81.5348C599.863 75.6438 595.088 70.8681 589.197 70.8681C583.306 70.8681 578.53 75.6438 578.53 81.5348ZM46.8593 135.906H408.63V131.906H46.8593V135.906ZM409.906 135.447L473.188 83.0756L470.638 79.994L407.355 132.366L409.906 135.447ZM471.913 83.5348H589.197V79.5348H471.913V83.5348Z" fill="#5C9EAD" fill-opacity="0.75"/>
<path d="M49.3884 584.256C49.3884 590.147 54.164 594.923 60.0551 594.923C65.9461 594.923 70.7218 590.147 70.7218 584.256C70.7218 578.365 65.9461 573.59 60.0551 573.59C54.164 573.59 49.3884 578.365 49.3884 584.256ZM446.431 584.256V586.256H447.128L447.674 585.823L446.431 584.256ZM513.127 531.367V529.367H512.431L511.885 529.8L513.127 531.367ZM615.154 531.367C615.154 537.258 619.929 542.034 625.82 542.034C631.711 542.034 636.487 537.258 636.487 531.367C636.487 525.476 631.711 520.701 625.82 520.701C619.929 520.701 615.154 525.476 615.154 531.367ZM60.0551 586.256H446.431V582.256H60.0551V586.256ZM447.674 585.823L514.37 532.934L511.885 529.8L445.189 582.689L447.674 585.823ZM513.127 533.367H625.82V529.367H513.127V533.367Z" fill="#5C9EAD" fill-opacity="0.75"/>
<path d="M49.3884 584.256C49.3884 578.365 54.164 573.589 60.0551 573.589C65.9461 573.589 70.7218 578.365 70.7218 584.256C70.7218 590.147 65.9461 594.923 60.0551 594.923C54.164 594.923 49.3884 590.147 49.3884 584.256ZM446.431 584.256V582.256H447.15L447.704 582.713L446.431 584.256ZM513.127 639.289V641.289H512.409L511.854 640.832L513.127 639.289ZM615.154 639.289C615.154 633.398 619.929 628.622 625.82 628.622C631.711 628.622 636.487 633.398 636.487 639.289C636.487 645.18 631.711 649.956 625.82 649.956C619.929 649.956 615.154 645.18 615.154 639.289ZM60.0551 582.256L446.431 582.256V586.256L60.0551 586.256V582.256ZM447.704 582.713L514.4 637.746L511.854 640.832L445.158 585.799L447.704 582.713ZM513.127 637.289H625.82V641.289H513.127V637.289Z" fill="#5C9EAD" fill-opacity="0.75"/>
<path d="M715.986 715.821C715.986 721.712 711.21 726.488 705.319 726.488C699.428 726.488 694.653 721.712 694.653 715.821C694.653 709.93 699.428 705.155 705.319 705.155C711.21 705.155 715.986 709.93 715.986 715.821ZM325.254 715.821V717.821H324.464L323.887 717.281L325.254 715.821ZM268.82 662.932V660.932H269.611L270.188 661.473L268.82 662.932ZM184.132 662.932C184.132 668.823 179.356 673.599 173.465 673.599C167.574 673.599 162.799 668.823 162.799 662.932C162.799 657.041 167.574 652.266 173.465 652.266C179.356 652.266 184.132 657.041 184.132 662.932ZM705.319 717.821H325.254V713.821H705.319V717.821ZM323.887 717.281L267.452 664.392L270.188 661.473L326.622 714.362L323.887 717.281ZM268.82 664.932H173.465V660.932H268.82V664.932Z" fill="#5C9EAD" fill-opacity="0.75"/>
<path d="M715.807 715.821C715.807 709.93 711.032 705.154 705.141 705.154C699.25 705.154 694.474 709.93 694.474 715.821C694.474 721.712 699.25 726.488 705.141 726.488C711.032 726.488 715.807 721.712 715.807 715.821ZM325.254 715.821V713.821H324.441L323.858 714.389L325.254 715.821ZM268.82 770.854V772.854H269.634L270.216 772.286L268.82 770.854ZM184.132 770.854C184.132 764.963 179.356 760.187 173.465 760.187C167.574 760.187 162.799 764.963 162.799 770.854C162.799 776.745 167.574 781.521 173.465 781.521C179.356 781.521 184.132 776.745 184.132 770.854ZM705.141 713.821L325.254 713.821V717.821L705.141 717.821V713.821ZM323.858 714.389L267.424 769.422L270.216 772.286L326.651 717.253L323.858 714.389ZM268.82 768.854H173.465V772.854H268.82V768.854Z" fill="#5C9EAD" fill-opacity="0.75"/>
<path d="M909.19 279.046C909.19 273.154 904.414 268.379 898.523 268.379C892.632 268.379 887.857 273.154 887.857 279.046C887.857 284.937 892.632 289.712 898.523 289.712C904.414 289.712 909.19 284.937 909.19 279.046ZM531.922 279.046V277.046H531.202L530.647 277.505L531.922 279.046ZM468.64 331.417V333.417H469.36L469.915 332.958L468.64 331.417ZM372.381 331.417C372.381 325.526 367.605 320.75 361.714 320.75C355.823 320.75 351.047 325.526 351.047 331.417C351.047 337.308 355.823 342.084 361.714 342.084C367.605 342.084 372.381 337.308 372.381 331.417ZM898.523 277.046L531.922 277.046V281.046L898.523 281.046V277.046ZM530.647 277.505L467.364 329.876L469.915 332.958L533.197 280.586L530.647 277.505ZM468.64 329.417H361.714V333.417H468.64V329.417Z" fill="#5C9EAD" fill-opacity="0.75"/>
<path d="M116.158 473.15C116.158 479.041 120.934 483.817 126.825 483.817C132.716 483.817 137.491 479.041 137.491 473.15C137.491 467.259 132.716 462.484 126.825 462.484C120.934 462.484 116.158 467.259 116.158 473.15ZM633.328 473.15C633.328 479.041 638.103 483.817 643.995 483.817C649.885 483.817 654.661 479.041 654.661 473.15C654.661 467.259 649.885 462.484 643.995 462.484C638.103 462.484 633.328 467.259 633.328 473.15ZM126.825 475.15H643.995V471.15H126.825V475.15Z" fill="#5C9EAD" fill-opacity="0.75"/>
<path d="M1468.31 703.605C1468.31 709.496 1473.08 714.272 1478.98 714.272C1484.87 714.272 1489.64 709.496 1489.64 703.605C1489.64 697.714 1484.87 692.939 1478.98 692.939C1473.08 692.939 1468.31 697.714 1468.31 703.605ZM1064.37 703.605L1063.1 705.151L1063.65 705.605H1064.37V703.605ZM1003.27 653.416L1004.54 651.87L1003.98 651.416H1003.27V653.416ZM787.478 653.416C787.478 659.307 792.253 664.082 798.144 664.082C804.035 664.082 808.811 659.307 808.811 653.416C808.811 647.525 804.035 642.749 798.144 642.749C792.253 642.749 787.478 647.525 787.478 653.416ZM1478.98 701.605H1064.37V705.605H1478.98V701.605ZM1065.64 702.06L1004.54 651.87L1002 654.961L1063.1 705.151L1065.64 702.06ZM1003.27 651.416H798.144V655.416H1003.27V651.416Z" fill="#5C9EAD" fill-opacity="0.75"/>
<path d="M1468.31 770.488C1468.31 776.379 1473.08 781.155 1478.98 781.155C1484.87 781.155 1489.64 776.379 1489.64 770.488C1489.64 764.597 1484.87 759.821 1478.98 759.821C1473.08 759.821 1468.31 764.597 1468.31 770.488ZM1064.37 770.488L1063.1 772.033L1063.65 772.488H1064.37V770.488ZM1003.27 720.299L1004.54 718.753L1003.98 718.299H1003.27V720.299ZM787.478 720.299C787.478 726.19 792.253 730.965 798.144 730.965C804.035 730.965 808.811 726.19 808.811 720.299C808.811 714.408 804.035 709.632 798.144 709.632C792.253 709.632 787.478 714.408 787.478 720.299ZM1478.98 768.488H1064.37V772.488H1478.98V768.488ZM1065.64 768.943L1004.54 718.753L1002 721.844L1063.1 772.033L1065.64 768.943ZM1003.27 718.299H798.144V722.299H1003.27V718.299Z" fill="#C7F0FF" fill-opacity="0.15"/>
<path d="M1471.58 849.396C1471.58 855.287 1476.36 860.062 1482.25 860.062C1488.14 860.062 1492.91 855.287 1492.91 849.396C1492.91 843.505 1488.14 838.729 1482.25 838.729C1476.36 838.729 1471.58 843.505 1471.58 849.396ZM1067.64 849.396L1066.37 850.941L1066.92 851.396H1067.64V849.396ZM1006.54 799.206L1007.81 797.661L1007.26 797.206H1006.54V799.206ZM790.751 799.206C790.751 805.097 795.526 809.873 801.417 809.873C807.308 809.873 812.084 805.097 812.084 799.206C812.084 793.315 807.308 788.54 801.417 788.54C795.526 788.54 790.751 793.315 790.751 799.206ZM1482.25 847.396H1067.64V851.396H1482.25V847.396ZM1068.91 847.85L1007.81 797.661L1005.27 800.752L1066.37 850.941L1068.91 847.85ZM1006.54 797.206H801.417V801.206H1006.54V797.206Z" fill="#5C9EAD" fill-opacity="0.75"/>
<path d="M1472.57 133.359C1472.57 139.25 1477.35 144.025 1483.24 144.025C1489.13 144.025 1493.9 139.25 1493.9 133.359C1493.9 127.468 1489.13 122.692 1483.24 122.692C1477.35 122.692 1472.57 127.468 1472.57 133.359ZM1001.32 131.724L1000.05 133.27L1000.6 133.722L1001.32 133.724L1001.32 131.724ZM940.223 81.5348L941.493 79.9893L940.94 79.5348H940.223V81.5348ZM724.435 81.5348C724.435 87.4258 729.21 92.2015 735.101 92.2015C740.992 92.2015 745.768 87.4258 745.768 81.5348C745.768 75.6438 740.992 70.8681 735.101 70.8681C729.21 70.8681 724.435 75.6438 724.435 81.5348ZM1483.24 131.359L1001.33 129.724L1001.32 133.724L1483.23 135.359L1483.24 131.359ZM1002.59 130.179L941.493 79.9893L938.954 83.0802L1000.05 133.27L1002.59 130.179ZM940.223 79.5348H735.101V83.5348H940.223V79.5348Z" fill="#5C9EAD" fill-opacity="0.75"/>
<path d="M1472.57 192.294C1472.57 198.185 1477.35 202.96 1483.24 202.96C1489.13 202.96 1493.9 198.185 1493.9 192.294C1493.9 186.403 1489.13 181.627 1483.24 181.627C1477.35 181.627 1472.57 186.403 1472.57 192.294ZM1001.8 192.294L1000.54 193.839L1001.09 194.294H1001.8V192.294ZM940.704 142.104L941.974 140.559L941.42 140.104H940.704V142.104ZM723.913 142.104C723.913 147.995 728.689 152.771 734.58 152.771C740.471 152.771 745.246 147.995 745.246 142.104C745.246 136.213 740.471 131.438 734.58 131.438C728.689 131.438 723.913 136.213 723.913 142.104ZM1483.24 190.294H1001.8V194.294H1483.24V190.294ZM1003.07 190.748L941.974 140.559L939.435 143.65L1000.54 193.839L1003.07 190.748ZM940.704 140.104H734.58V144.104H940.704V140.104Z" fill="#5C9EAD" fill-opacity="0.75"/>
<path d="M1472.57 252.851C1472.57 258.742 1477.35 263.518 1483.24 263.518C1489.13 263.518 1493.9 258.742 1493.9 252.851C1493.9 246.96 1489.13 242.184 1483.24 242.184C1477.35 242.184 1472.57 246.96 1472.57 252.851ZM1004.69 252.851L1003.42 254.397L1003.98 254.851H1004.69V252.851ZM943.591 202.662L944.861 201.116L944.307 200.662H943.591V202.662ZM724.055 202.662C724.055 208.553 728.831 213.328 734.722 213.328C740.613 213.328 745.389 208.553 745.389 202.662C745.389 196.771 740.613 191.995 734.722 191.995C728.831 191.995 724.055 196.771 724.055 202.662ZM1483.24 250.851H1004.69V254.851H1483.24V250.851ZM1005.96 251.306L944.861 201.116L942.322 204.207L1003.42 254.397L1005.96 251.306ZM943.591 200.662H734.722V204.662H943.591V200.662Z" fill="#5C9EAD" fill-opacity="0.75"/>
<path d="M1485.22 640.934H1112.07L1055.33 595.109L1112.07 549.283H1485.22" stroke="#5C9EAD" stroke-opacity="0.75" stroke-width="4"/>
<path d="M831.172 494.315H749.211L692.475 448.49L749.211 402.665H830.552" stroke="#5C9EAD" stroke-opacity="0.75" stroke-width="4"/>
<path d="M750.828 402.665H830.706L887.442 448.49L830.706 494.315H750.672" stroke="#5C9EAD" stroke-opacity="0.75" stroke-width="4"/>
<path d="M111.914 769.782H0.135742M0.135742 661.86L111.294 661.86" stroke="#5C9EAD" stroke-opacity="0.75" stroke-width="4"/>
<path d="M31.5694 661.86H111.448L168.184 715.821L111.448 769.782H31.4143" stroke="#5C9EAD" stroke-opacity="0.75" stroke-width="4"/>
<path d="M852.115 584.256C852.115 590.147 856.89 594.923 862.781 594.923C868.672 594.923 873.448 590.147 873.448 584.256C873.448 578.365 868.672 573.59 862.781 573.59C856.89 573.59 852.115 578.365 852.115 584.256ZM526.313 584.256C526.313 590.147 531.089 594.923 536.98 594.923C542.871 594.923 547.646 590.147 547.646 584.256C547.646 578.365 542.871 573.59 536.98 573.59C531.089 573.59 526.313 578.365 526.313 584.256ZM862.781 582.256H536.98V586.256H862.781V582.256Z" fill="#5C9EAD" fill-opacity="0.75"/>
<path d="M1136.31 331.531C1136.31 337.422 1141.08 342.2 1146.97 342.204C1152.86 342.207 1157.64 337.435 1157.64 331.544C1157.65 325.653 1152.88 320.874 1146.98 320.871C1141.09 320.867 1136.31 325.64 1136.31 331.531ZM933.806 331.411C933.803 337.302 938.576 342.08 944.467 342.084C950.358 342.087 955.136 337.314 955.14 331.423C955.143 325.532 950.37 320.754 944.479 320.75C938.588 320.747 933.81 325.52 933.806 331.411ZM1146.98 329.537L944.474 329.417L944.472 333.417L1146.98 333.537L1146.98 329.537Z" fill="#5C9EAD" fill-opacity="0.75"/>
<path d="M446.407 653.416C446.407 659.307 451.183 664.082 457.074 664.082C462.965 664.082 467.741 659.307 467.741 653.416C467.741 647.525 462.965 642.749 457.074 642.749C451.183 642.749 446.407 647.525 446.407 653.416ZM332.271 653.416C332.271 659.307 337.047 664.082 342.938 664.082C348.829 664.082 353.604 659.307 353.604 653.416C353.604 647.525 348.829 642.749 342.938 642.749C337.047 642.749 332.271 647.525 332.271 653.416ZM457.074 651.416H342.938V655.416H457.074V651.416Z" fill="#5C9EAD" fill-opacity="0.75"/>
<path d="M401.745 531.367C401.745 537.258 406.52 542.034 412.411 542.034C418.302 542.034 423.078 537.258 423.078 531.367C423.078 525.476 418.302 520.701 412.411 520.701C406.52 520.701 401.745 525.476 401.745 531.367ZM75.9433 531.367C75.9433 537.258 80.7189 542.034 86.6099 542.034C92.501 542.034 97.2766 537.258 97.2766 531.367C97.2766 525.476 92.501 520.701 86.6099 520.701C80.7189 520.701 75.9433 525.476 75.9433 531.367ZM412.411 529.367H86.6099V533.367H412.411V529.367Z" fill="#C7F0FF" fill-opacity="0.15"/>
<path d="M1456.97 595.108C1456.97 600.999 1461.74 605.775 1467.63 605.775C1473.53 605.775 1478.3 600.999 1478.3 595.108C1478.3 589.217 1473.53 584.442 1467.63 584.442C1461.74 584.442 1456.97 589.217 1456.97 595.108ZM1131.17 595.108C1131.17 600.999 1135.94 605.775 1141.83 605.775C1147.72 605.775 1152.5 600.999 1152.5 595.108C1152.5 589.217 1147.72 584.442 1141.83 584.442C1135.94 584.442 1131.17 589.217 1131.17 595.108ZM1467.63 593.108H1141.83V597.108H1467.63V593.108Z" fill="#C7F0FF" fill-opacity="0.15"/>
<path d="M1384.32 473.15C1384.32 479.041 1389.09 483.817 1394.98 483.817C1400.87 483.817 1405.65 479.041 1405.65 473.15C1405.65 467.259 1400.87 462.484 1394.98 462.484C1389.09 462.484 1384.32 467.259 1384.32 473.15ZM969.462 473.15V471.15H968.743L968.189 471.608L969.462 473.15ZM888.307 531.367C888.307 537.258 893.083 542.034 898.974 542.034C904.865 542.034 909.64 537.258 909.64 531.367C909.64 525.476 904.865 520.7 898.974 520.7C893.083 520.7 888.307 525.476 888.307 531.367ZM1394.98 471.15H969.462V475.15H1394.98V471.15ZM968.189 471.608L897.7 529.825L900.247 532.909L970.736 474.692L968.189 471.608Z" fill="#5C9EAD" fill-opacity="0.75"/>
<path d="M1027.6 511.842C1027.6 517.733 1032.38 522.508 1038.27 522.508C1044.16 522.508 1048.93 517.733 1048.93 511.842C1048.93 505.951 1044.16 501.175 1038.27 501.175C1032.38 501.175 1027.6 505.951 1027.6 511.842ZM942.138 584.256C942.138 590.147 946.914 594.923 952.805 594.923C958.696 594.923 963.471 590.147 963.471 584.256C963.471 578.365 958.696 573.589 952.805 573.589C946.914 573.589 942.138 578.365 942.138 584.256ZM1036.97 510.316L951.512 582.73L954.098 585.782L1039.56 513.367L1036.97 510.316Z" fill="#5C9EAD" fill-opacity="0.75"/>
<path d="M409.966 402.665C409.966 408.556 414.741 413.331 420.632 413.331C426.523 413.331 431.299 408.556 431.299 402.665C431.299 396.774 426.523 391.998 420.632 391.998C414.741 391.998 409.966 396.774 409.966 402.665ZM512.283 402.665V404.665H513.111L513.697 404.079L512.283 402.665ZM566.836 348.111V346.111H566.008L565.422 346.697L566.836 348.111ZM852.698 348.111L853.979 346.575L853.422 346.111H852.698V348.111ZM918.163 402.665L916.882 404.201L917.439 404.665H918.163V402.665ZM1154.08 402.665C1154.08 408.556 1158.85 413.331 1164.75 413.331C1170.64 413.331 1175.41 408.556 1175.41 402.665C1175.41 396.774 1170.64 391.998 1164.75 391.998C1158.85 391.998 1154.08 396.774 1154.08 402.665ZM420.632 404.665H512.283V400.665H420.632V404.665ZM513.697 404.079L568.251 349.525L565.422 346.697L510.868 401.251L513.697 404.079ZM566.836 350.111H852.698V346.111H566.836V350.111ZM851.418 349.647L916.882 404.201L919.443 401.128L853.979 346.575L851.418 349.647ZM918.163 404.665H1164.75V400.665H918.163V404.665Z" fill="#5C9EAD" fill-opacity="0.75"/>
<circle cx="662.957" cy="202.67" r="10.5822" fill="#5C9EAD" fill-opacity="0.75"/>
<circle cx="1056.31" cy="594.839" r="10.5822" fill="#5C9EAD" fill-opacity="0.75"/>
<circle cx="662.957" cy="142.104" r="13.2394" fill="#5C9EAD" fill-opacity="0.75"/>
<circle cx="662.957" cy="202.662" r="13.2394" fill="#5C9EAD" fill-opacity="0.75"/>
<circle cx="662.957" cy="81.5348" r="13.2394" fill="#5C9EAD" fill-opacity="0.75"/>
<circle cx="86.61" cy="392.082" r="10.5822" fill="#C7F0FF" fill-opacity="0.15"/>
<circle cx="86.61" cy="331.515" r="10.5822" fill="#C7F0FF" fill-opacity="0.15"/>
<circle cx="156.254" cy="392.082" r="10.5822" fill="#C7F0FF" fill-opacity="0.15"/>
<circle cx="156.254" cy="331.515" r="10.5822" fill="#C7F0FF" fill-opacity="0.15"/>
<circle cx="225.899" cy="392.082" r="10.5822" fill="#C7F0FF" fill-opacity="0.15"/>
<circle cx="225.899" cy="331.515" r="10.5822" fill="#C7F0FF" fill-opacity="0.15"/>
<circle cx="630.988" cy="421.032" r="10.5822" fill="#C7F0FF" fill-opacity="0.15"/>
<circle cx="677.042" cy="385.97" r="10.5822" fill="#C7F0FF" fill-opacity="0.15"/>
<circle cx="563.768" cy="421.032" r="10.5822" fill="#C7F0FF" fill-opacity="0.15"/>
<circle cx="609.823" cy="385.97" r="10.5822" fill="#C7F0FF" fill-opacity="0.15"/>
<circle cx="357.098" cy="774.754" r="10.5822" fill="#C7F0FF" fill-opacity="0.15"/>
<circle cx="426.741" cy="774.754" r="10.5822" fill="#C7F0FF" fill-opacity="0.15"/>
<circle cx="496.386" cy="774.754" r="10.5822" fill="#C7F0FF" fill-opacity="0.15"/>
<circle cx="566.031" cy="776.569" r="10.5822" fill="#C7F0FF" fill-opacity="0.15"/>
<circle cx="635.675" cy="776.569" r="10.5822" fill="#C7F0FF" fill-opacity="0.15"/>
<circle cx="705.319" cy="776.569" r="10.5822" fill="#C7F0FF" fill-opacity="0.15"/>
<circle cx="705.319" cy="716.002" r="10.5822" fill="#C7F0FF" fill-opacity="0.15"/>
<circle cx="563.769" cy="897.704" r="10.5822" fill="#C7F0FF" fill-opacity="0.15"/>
<circle cx="563.769" cy="837.136" r="10.5822" fill="#C7F0FF" fill-opacity="0.15"/>
<circle cx="633.412" cy="897.704" r="10.5822" fill="#C7F0FF" fill-opacity="0.15"/>
<circle cx="633.412" cy="837.136" r="10.5822" fill="#C7F0FF" fill-opacity="0.15"/>
<circle cx="703.057" cy="897.704" r="10.5822" fill="#C7F0FF" fill-opacity="0.15"/>
<circle cx="703.057" cy="837.136" r="10.5822" fill="#C7F0FF" fill-opacity="0.15"/>
<circle cx="361.406" cy="897.704" r="10.5822" fill="#C7F0FF" fill-opacity="0.15"/>
<circle cx="361.406" cy="837.136" r="10.5822" fill="#C7F0FF" fill-opacity="0.15"/>
<circle cx="431.05" cy="897.704" r="10.5822" fill="#C7F0FF" fill-opacity="0.15"/>
<circle cx="431.05" cy="837.136" r="10.5822" fill="#C7F0FF" fill-opacity="0.15"/>
<circle cx="500.695" cy="897.704" r="10.5822" fill="#C7F0FF" fill-opacity="0.15"/>
<circle cx="500.695" cy="837.136" r="10.5822" fill="#C7F0FF" fill-opacity="0.15"/>
<circle cx="564.52" cy="958.272" r="10.5822" fill="#C7F0FF" fill-opacity="0.15"/>
<circle cx="634.164" cy="958.272" r="10.5822" fill="#C7F0FF" fill-opacity="0.15"/>
<circle cx="703.809" cy="958.272" r="10.5822" fill="#C7F0FF" fill-opacity="0.15"/>
<circle cx="362.158" cy="958.272" r="10.5822" fill="#C7F0FF" fill-opacity="0.15"/>
<circle cx="431.802" cy="958.272" r="10.5822" fill="#C7F0FF" fill-opacity="0.15"/>
<circle cx="501.447" cy="958.272" r="10.5822" fill="#C7F0FF" fill-opacity="0.15"/>
<circle cx="1280.86" cy="362.51" r="10.5822" fill="#C7F0FF" fill-opacity="0.15"/>
<circle cx="1280.86" cy="301.942" r="10.5822" fill="#C7F0FF" fill-opacity="0.15"/>
<circle cx="1350.5" cy="362.51" r="10.5822" fill="#C7F0FF" fill-opacity="0.15"/>
<circle cx="1350.5" cy="301.942" r="10.5822" fill="#C7F0FF" fill-opacity="0.15"/>
<circle cx="1420.14" cy="362.51" r="10.5822" fill="#C7F0FF" fill-opacity="0.15"/>
<circle cx="1420.14" cy="301.942" r="10.5822" fill="#C7F0FF" fill-opacity="0.15"/>
<circle cx="1280.86" cy="424.892" r="10.5822" fill="#C7F0FF" fill-opacity="0.15"/>
<circle cx="1350.5" cy="424.892" r="10.5822" fill="#C7F0FF" fill-opacity="0.15"/>
<circle cx="1420.14" cy="424.892" r="10.5822" fill="#C7F0FF" fill-opacity="0.15"/>
<circle cx="22.8234" cy="531.57" r="4.4051" fill="#C7F0FF" fill-opacity="0.15"/>
<circle cx="22.8234" cy="506.357" r="4.4051" fill="#C7F0FF" fill-opacity="0.15"/>
<circle cx="51.8148" cy="531.57" r="4.4051" fill="#C7F0FF" fill-opacity="0.15"/>
<circle cx="51.8148" cy="506.357" r="4.4051" fill="#C7F0FF" fill-opacity="0.15"/>
<circle cx="271.512" cy="11.5355" r="10.6147" transform="rotate(180 271.512 11.5355)" fill="#C7F0FF" fill-opacity="0.15"/>
<circle cx="271.512" cy="72.2888" r="10.6147" transform="rotate(180 271.512 72.2888)" fill="#C7F0FF" fill-opacity="0.15"/>
<circle cx="201.653" cy="11.5355" r="10.6147" transform="rotate(180 201.653 11.5355)" fill="#C7F0FF" fill-opacity="0.15"/>
<circle cx="201.653" cy="72.2888" r="10.6147" transform="rotate(180 201.653 72.2888)" fill="#C7F0FF" fill-opacity="0.15"/>
<circle cx="388.466" cy="72.2888" r="10.6147" transform="rotate(180 388.466 72.2888)" fill="#C7F0FF" fill-opacity="0.15"/>
<circle cx="327.712" cy="72.2888" r="10.6147" transform="rotate(180 327.712 72.2888)" fill="#C7F0FF" fill-opacity="0.15"/>
<circle cx="388.466" cy="11.5355" r="10.6147" transform="rotate(180 388.466 11.5355)" fill="#C7F0FF" fill-opacity="0.15"/>
<circle cx="327.712" cy="11.5355" r="10.6147" transform="rotate(180 327.712 11.5355)" fill="#C7F0FF" fill-opacity="0.15"/>
<circle cx="22.8233" cy="481.145" r="4.4051" fill="#C7F0FF" fill-opacity="0.15"/>
<circle cx="22.8233" cy="455.932" r="4.4051" fill="#C7F0FF" fill-opacity="0.15"/>
<circle cx="51.8148" cy="481.145" r="4.4051" fill="#C7F0FF" fill-opacity="0.15"/>
<circle cx="51.8148" cy="455.932" r="4.4051" fill="#C7F0FF" fill-opacity="0.15"/>
</svg>
