<svg width="62" height="51" viewBox="0 0 62 51" fill="none" xmlns="http://www.w3.org/2000/svg">
<path d="M62 6.03491C59.6944 7.04629 57.2376 7.71666 54.6763 8.04216C57.3113 6.46891 59.3224 3.99666 60.2679 1.01679C57.8111 2.48154 55.0986 3.51616 52.2079 4.09354C49.8751 1.60966 46.5504 0.0712891 42.9234 0.0712891C35.8864 0.0712891 30.2211 5.78304 30.2211 12.7852C30.2211 13.7927 30.3064 14.7614 30.5156 15.6837C19.9485 15.1683 10.5981 10.1037 4.31677 2.38854C3.22014 4.29116 2.57689 6.46891 2.57689 8.81329C2.57689 13.2153 4.84377 17.1174 8.22276 19.3765C6.18064 19.3378 4.17727 18.7449 2.48002 17.811C2.48002 17.8498 2.48002 17.9002 2.48002 17.9505C2.48002 24.1273 6.88589 29.2578 12.6635 30.4397C11.6289 30.7225 10.5013 30.8582 9.33102 30.8582C8.51727 30.8582 7.69577 30.8117 6.92464 30.6412C8.57152 35.6748 13.2448 39.3754 18.8015 39.4955C14.477 42.8784 8.98614 44.9167 3.04189 44.9167C1.99952 44.9167 0.999765 44.8702 1.52588e-05 44.7423C5.63039 48.3732 12.3031 50.4463 19.499 50.4463C42.8885 50.4463 55.676 31.0713 55.676 14.277C55.676 13.7152 55.6566 13.1727 55.6295 12.634C58.1521 10.8438 60.2718 8.60791 62 6.03491Z" fill="#002776"/>
</svg>
