<svg width="1512" height="1352" viewBox="0 0 1512 1352" fill="none" xmlns="http://www.w3.org/2000/svg">
<path d="M-1409.97 -854.911C-1340.93 -824.819 -1264.46 -838.179 -1154.9 -607.04C-1045.34 -375.9 -887.71 -332.394 -853.168 -335.749C-818.627 -339.104 -789.967 -393.706 -836.364 -419.241C-882.76 -444.777 -902.901 -410.547 -905.474 -390.45C-908.046 -370.354 -901.915 -291.08 -775.408 -261.2C-648.901 -231.32 -570.925 -333.422 -543.966 -386.894C-517.007 -440.366 -503.29 -545.094 -389.741 -567.886C-276.192 -590.678 59.1255 -559.329 104.347 -498.692C149.568 -438.054 142.633 -391.688 87.8958 -309.94C33.1585 -228.193 -177.719 -251.336 -300.853 -261.394C-423.987 -271.453 -413.733 -322.398 -378.043 -338.774C-342.353 -355.15 -307.545 -345.199 -330.268 -283.512C-352.991 -221.825 -479.418 -24.0563 -495.083 53.7756C-510.748 131.608 -382.303 126.735 -371.944 387.296C-369.474 449.435 -415.848 652.315 -310.196 766.145C-204.544 879.975 -55.2021 840.609 -13.5799 761.564C28.0422 682.518 66.293 530.799 243.765 530.522C421.238 530.244 477.742 811.599 393.613 884.66C309.484 957.722 276.927 902.315 297.24 865.263C317.554 828.212 410.027 803.113 457.8 949.005C505.574 1094.9 685.036 1084.73 741.406 1072.94C797.777 1061.14 960.975 873.068 1108.63 965.681C1256.29 1058.29 1003.58 1192.56 1499.79 1225.58C1598.89 1232.17 1653.46 1307.91 1688.62 1346.9" stroke="#214E34" stroke-width="10" stroke-linecap="round"/>
<path d="M45.8109 798.336C39.7486 784.682 27.2465 767.129 0.785825 770.794C-9.44404 773.244 -18.5344 775.668 -15.5484 777.765C10.8486 796.304 14.8243 801.571 21.0912 825.323C24.5317 838.363 25.5521 855.721 20.3022 866.875C47.4071 836.302 51.8733 811.989 45.8109 798.336Z" fill="#407C59" stroke="#214E34" stroke-width="2"/>
<path d="M21.4475 863.19C57.6058 791.719 23.807 756.358 -14.9734 777.841C14.7249 793.545 23.8241 827.933 24.5009 833.307C25.3226 839.832 23.7646 854.072 21.4475 863.19Z" fill="#214E34" stroke="#214E34" stroke-width="2"/>
<path d="M308.42 588.744C314.228 574.98 318.473 553.852 297.693 537.065C288.906 531.282 280.918 526.312 281.432 529.925C285.977 561.859 284.857 568.362 271.825 589.186C264.671 600.618 252.712 613.24 240.986 617.045C281.828 615.888 302.613 602.508 308.42 588.744Z" fill="#407C59" stroke="#214E34" stroke-width="2"/>
<path d="M244.457 615.359C321.317 592.817 323.973 543.973 281.77 530.396C290.642 562.798 271.792 592.965 268.337 597.136C264.142 602.2 252.691 610.808 244.457 615.359Z" fill="#214E34" stroke="#214E34" stroke-width="2"/>
<path d="M920.665 1019.9C912.955 1007.11 898.37 991.242 872.569 998.164C862.723 1001.86 854.004 1005.4 857.227 1007.11C885.721 1022.23 890.32 1026.96 899.487 1049.75C904.52 1062.26 907.688 1079.36 903.863 1091.08C926.963 1057.38 928.376 1032.7 920.665 1019.9Z" fill="#407C59" stroke="#214E34" stroke-width="2"/>
<path d="M904.542 1087.28C931.548 1011.87 893.62 980.981 857.807 1007.11C889.225 1019.01 902.523 1052 903.862 1057.25C905.487 1063.62 905.709 1077.94 904.542 1087.28Z" fill="#214E34" stroke="#214E34" stroke-width="2"/>
<path d="M423.478 722.828C439.508 730.253 425.256 796.114 353.548 721.507C378.335 732.242 427.023 747.536 423.478 722.828Z" fill="#214E34" stroke="#214E34" stroke-width="2"/>
<path d="M1266.03 1194.85C1282.06 1202.27 1267.8 1268.13 1196.1 1193.53C1220.88 1204.26 1269.57 1219.55 1266.03 1194.85Z" fill="#214E34" stroke="#214E34" stroke-width="2"/>
<path d="M744.368 1070.93C762 1072.01 772.7 1138.54 678.754 1095.15C705.748 1096.13 756.663 1092.65 744.368 1070.93Z" fill="#214E34" stroke="#214E34" stroke-width="2"/>
<path d="M1036.89 938.807C1018 952.979 967.579 880.482 1090.48 851.298C1061.96 873.829 1011.32 922.875 1036.89 938.807Z" fill="#214E34" stroke="#214E34" stroke-width="2"/>
<path d="M471.993 994.155C458.885 1013.8 387.237 962.173 493.464 893.812C474.051 924.539 442.578 987.625 471.993 994.155Z" fill="#214E34" stroke="#214E34" stroke-width="2"/>
<path d="M291.822 875.785C283.877 860.661 264.675 870.673 256.067 877.569" stroke="#214E34" stroke-width="10" stroke-linecap="round"/>
<path d="M182.502 859.948C216.731 871.115 211.885 850.837 237.189 858.713C257.25 864.958 263.2 879.736 256.686 897.653C251.214 912.703 217.857 926.052 182.502 859.948Z" fill="#407C59" stroke="#214E34" stroke-width="2"/>
<path d="M246.659 882.437C229.607 890.48 208.209 881.048 196.452 872.331" stroke="#214E34" stroke-width="2" stroke-linecap="round"/>
<path d="M26.8419 681.522C58.2447 694.108 51.7973 713.172 34.1345 710.139C16.4716 707.106 2.47323 662.521 11.1234 648.077" stroke="#214E34" stroke-width="10" stroke-linecap="round"/>
<path d="M40.746 589.591C25.2351 622.084 45.9708 619.908 34.8804 643.977C26.0878 663.059 10.6624 667.044 -6.25892 658.261C-20.472 650.884 -29.3839 616.077 40.746 589.591Z" fill="#407C59" stroke="#214E34" stroke-width="2"/>
<path d="M10.1294 650.291C4.36462 632.34 16.491 612.346 26.6585 601.818" stroke="#214E34" stroke-width="2" stroke-linecap="round"/>
<path d="M1068.67 1084.99C1102.14 1071.73 1085.46 1059.22 1109.97 1049.12C1129.4 1041.12 1143.41 1048.7 1149.84 1066.65C1155.23 1081.72 1138.08 1113.3 1068.67 1084.99Z" fill="#407C59" stroke="#214E34" stroke-width="2"/>
<path d="M1132.4 1061.34C1124.41 1078.42 1101.92 1084.82 1087.31 1085.61" stroke="#214E34" stroke-width="2" stroke-linecap="round"/>
<path d="M602.136 1054.72C615.012 1066.65 626.908 1079.23 614.334 1086.88C604.275 1093.01 595.253 1079.08 591.999 1071.35" stroke="#214E34" stroke-width="10" stroke-linecap="round"/>
<path d="M631.683 981.612C616.172 1014.1 636.908 1011.93 625.817 1036C617.025 1055.08 601.599 1059.06 584.678 1050.28C570.465 1042.9 561.553 1008.1 631.683 981.612Z" fill="#407C59" stroke="#214E34" stroke-width="2"/>
<path d="M601.066 1042.31C595.301 1024.36 607.428 1004.37 617.595 993.839" stroke="#214E34" stroke-width="2" stroke-linecap="round"/>
</svg>
