<svg width="1512" height="1204" viewBox="0 0 1512 1204" fill="none" xmlns="http://www.w3.org/2000/svg">
<path d="M-242.655 642.063C-201.152 579.219 -201.179 501.584 45.3417 433.351C291.863 365.118 361.795 217.302 364.423 182.697C367.05 148.093 318.181 110.481 285.057 151.803C251.933 193.124 282.195 218.845 301.551 224.831C320.907 230.817 400.056 238.392 451.219 118.896C502.382 -0.59926 415.189 -94.9522 367.142 -130.695C319.095 -166.437 218.278 -197.937 215.327 -313.713C212.375 -429.489 300.848 -754.44 368.351 -788.575C435.854 -822.71 480.341 -807.915 551.472 -739.951C622.604 -671.987 563.588 -468.218 532.531 -348.641C501.473 -229.064 453.047 -247.915 443.044 -285.888C433.041 -323.86 448.822 -356.442 505.69 -323.462C562.558 -290.482 735.674 -131.968 809.659 -103.168C883.644 -74.3678 900.904 -201.741 1159.37 -167.196C1221.01 -158.958 1412.91 -78.428 1543.2 -162.96C1673.48 -247.493 1660.35 -401.377 1589.63 -455.956C1518.9 -510.536 1376.01 -574.275 1406.22 -749.158C1436.42 -924.041 1723.3 -931.385 1780.83 -835.958C1838.36 -740.53 1778.18 -717.973 1745.17 -744.348C1712.16 -770.723 1703.31 -866.132 1855.24 -888.14C2007.17 -910.147 2027.98 -1088.69 2026.04 -1146.25C2024.1 -1203.81 1866.85 -1396.88 1983.45 -1526.44C2100.04 -1656 2188.91 -1383.98 2306.66 -1867.14C2330.18 -1963.64 2414.16 -2004.39 2458.61 -2032.33" stroke="#214E34" stroke-width="10" stroke-linecap="round"/>
<path d="M-55.5005 456.887C-42.9387 464.972 -22.8533 472.782 -2.747 455.194C4.45925 447.531 10.7272 440.515 7.08021 440.401C-25.1604 439.394 -31.3747 437.174 -49.6509 420.759C-59.6844 411.748 -70.065 397.799 -71.7993 385.593C-77.6743 426.027 -68.0622 448.802 -55.5005 456.887Z" fill="#407C59" stroke="#214E34" stroke-width="2"/>
<path d="M-70.734 389.302C-61.7276 468.892 -14.0661 479.897 6.55784 440.653C-26.8863 443.828 -53.368 420.078 -56.8833 415.957C-61.1515 410.955 -67.6657 398.196 -70.734 389.302Z" fill="#214E34" stroke="#214E34" stroke-width="2"/>
<path d="M333.103 344.34C327.993 330.302 316.726 311.932 290.076 313.771C279.702 315.513 270.467 317.307 273.301 319.604C298.363 339.911 301.968 345.439 306.588 369.566C309.125 382.811 308.951 400.198 302.948 410.965C332.088 382.326 338.214 358.377 333.103 344.34Z" fill="#407C59" stroke="#214E34" stroke-width="2"/>
<path d="M304.343 407.368C345.325 338.548 314.034 300.95 273.87 319.719C302.42 337.425 309.136 372.357 309.442 377.765C309.814 384.33 307.281 398.43 304.343 407.368Z" fill="#214E34" stroke="#214E34" stroke-width="2"/>
<path d="M117.601 405.089C101.67 413.515 119.732 479.848 188.775 399.981C164.1 412.251 115.319 430.451 117.601 405.089Z" fill="#214E34" stroke="#214E34" stroke-width="2"/>
<path d="M471.372 37.0706C455.44 45.497 473.503 111.83 542.546 31.9626C517.87 44.2331 469.089 62.4334 471.372 37.0706Z" fill="#214E34" stroke="#214E34" stroke-width="2"/>
<path d="M195.934 334.443C199.79 351.46 236.508 340.03 254.385 332.187" stroke="#214E34" stroke-width="10" stroke-linecap="round"/>
<path d="M223.491 265.599C206.611 297.402 227.42 296.11 215.315 319.685C205.718 338.376 190.137 341.7 173.605 332.205C159.719 324.229 152.297 289.075 223.491 265.599Z" fill="#407C59" stroke="#214E34" stroke-width="2"/>
<path d="M190.318 324.94C185.322 306.76 198.289 287.3 208.895 277.215" stroke="#214E34" stroke-width="2" stroke-linecap="round"/>
</svg>
