<svg width="1512" height="3483" viewBox="0 0 1512 3483" fill="none" xmlns="http://www.w3.org/2000/svg">
<path d="M1517.96 5.83423C1502.08 79.4531 1530.27 151.79 1325.29 304.802C1120.31 457.813 1108.76 620.93 1118.87 654.13C1128.97 687.331 1188.16 704.653 1204.04 654.13C1219.91 603.608 1182.38 590.616 1162.17 592.06C1141.97 593.503 1065.46 615.156 1061.13 745.071C1056.8 874.987 1172.28 931.283 1230.02 947.162C1287.76 963.041 1393.13 955.823 1437.88 1062.64C1482.63 1169.46 1518.06 1504.37 1467.54 1560.67C1417.02 1616.97 1370.19 1619.32 1279.25 1581.79C1188.31 1544.25 1169.39 1332.96 1154.96 1210.26C1140.52 1087.56 1192.49 1087.56 1215.58 1119.32C1238.68 1151.07 1235.79 1187.16 1170.84 1177.06C1105.88 1166.95 887.051 1082.03 807.658 1082.03C728.265 1082.03 758.387 1206.99 504.992 1268.56C444.562 1283.24 236.521 1277.81 145.775 1403.85C55.0298 1529.88 123.089 1668.52 208.793 1693.73C294.497 1718.94 450.781 1726.5 486.071 1900.43C521.361 2074.36 256.686 2185.26 168.462 2117.21C80.2369 2049.15 128.13 2006.3 168.462 2018.9C208.793 2031.5 251.645 2117.21 118.047 2192.83C-15.5499 2268.45 29.8229 2442.38 52.5092 2495.31C75.1956 2548.25 291.775 2671.13 230.118 2834.16C168.462 2997.18 -13.0291 2775.93 52.5092 3268.9C65.598 3367.35 2.12212 3435.8 -29.1676 3477.96" stroke="#214E34" stroke-width="10" stroke-linecap="round"/>
<path d="M1410.73 246.289C1396.09 243.311 1374.54 243.319 1362.18 267.003C1358.24 276.758 1354.95 285.569 1358.39 284.353C1388.8 273.595 1395.39 273.41 1418.38 282.077C1431 286.835 1445.73 296.068 1451.78 306.813C1442.58 267.003 1425.36 249.266 1410.73 246.289Z" fill="#407C59" stroke="#214E34" stroke-width="2"/>
<path d="M1449.44 303.744C1412.17 232.842 1363.77 239.876 1358.78 283.928C1388.8 268.838 1422.09 281.364 1426.86 283.928C1432.65 287.042 1443.35 296.569 1449.44 303.744Z" fill="#214E34" stroke="#214E34" stroke-width="2"/>
<path d="M1192.34 858.333C1177.7 855.355 1156.15 855.363 1143.79 879.047C1139.86 888.802 1136.56 897.613 1140 896.397C1170.41 885.639 1177.01 885.454 1199.99 894.121C1212.61 898.879 1227.35 908.112 1233.39 918.857C1224.2 879.047 1206.98 861.31 1192.34 858.333Z" fill="#407C59" stroke="#214E34" stroke-width="2"/>
<path d="M1231.05 915.788C1193.79 844.886 1145.38 851.92 1140.4 895.972C1170.41 880.882 1203.71 893.408 1208.48 895.972C1214.27 899.086 1224.97 908.613 1231.05 915.788Z" fill="#214E34" stroke="#214E34" stroke-width="2"/>
<path d="M1106.02 1296.93C1120.66 1299.91 1142.21 1299.9 1154.57 1276.22C1158.5 1266.46 1161.8 1257.65 1158.36 1258.87C1127.95 1269.62 1121.35 1269.81 1098.37 1261.14C1085.75 1256.38 1071.01 1247.15 1064.97 1236.41C1074.16 1276.22 1091.38 1293.95 1106.02 1296.93Z" fill="#407C59" stroke="#214E34" stroke-width="2"/>
<path d="M1067.31 1239.48C1104.57 1310.38 1152.98 1303.34 1157.96 1259.29C1127.95 1274.38 1094.66 1261.86 1089.89 1259.29C1084.09 1256.18 1073.39 1246.65 1067.31 1239.48Z" fill="#214E34" stroke="#214E34" stroke-width="2"/>
<path d="M1089.42 492.137C1099.27 503.364 1116.44 516.397 1140.6 505.015C1149.64 499.629 1157.6 494.607 1154.12 493.495C1123.4 483.662 1118.03 479.818 1104.98 459.011C1097.81 447.588 1091.66 431.322 1093.35 419.11C1076.59 456.37 1079.56 480.91 1089.42 492.137Z" fill="#407C59" stroke="#214E34" stroke-width="2"/>
<path d="M1093.36 422.969C1080.13 501.967 1122.93 525.654 1153.55 493.593C1120.52 487.45 1101.59 457.333 1099.34 452.405C1096.62 446.422 1093.86 432.364 1093.36 422.969Z" fill="#214E34" stroke="#214E34" stroke-width="2"/>
<path d="M1459.11 1421.13C1473.19 1423.72 1492.34 1431.44 1494.85 1456.91C1494.86 1466.99 1494.64 1476 1492.02 1473.69C1468.83 1453.25 1463.04 1450.72 1439.5 1450.2C1426.58 1449.92 1410.18 1452.85 1400.97 1460.24C1423.38 1428.14 1445.03 1418.54 1459.11 1421.13Z" fill="#407C59" stroke="#214E34" stroke-width="2"/>
<path d="M1404.14 1458.35C1462.64 1408.66 1503.15 1432.23 1491.82 1473.17C1470.54 1449.02 1436.46 1448.24 1431.3 1448.81C1425.04 1449.51 1412.12 1454.15 1404.14 1458.35Z" fill="#214E34" stroke="#214E34" stroke-width="2"/>
<path d="M184.463 1759.21C196.651 1750.57 211.393 1734.85 202.578 1709.63C198.158 1700.09 193.988 1691.65 192.522 1695C179.556 1724.53 175.177 1729.47 153.128 1740.3C141.023 1746.24 124.208 1750.67 112.237 1747.72C147.558 1768.26 172.274 1767.85 184.463 1759.21Z" fill="#407C59" stroke="#214E34" stroke-width="2"/>
<path d="M116.076 1748.12C193.277 1769.47 221.273 1729.35 192.56 1695.57C183.026 1727.79 151.109 1743.49 145.974 1745.22C139.74 1747.31 125.472 1748.59 116.076 1748.12Z" fill="#214E34" stroke="#214E34" stroke-width="2"/>
<path d="M957.907 1058.32C962.662 1044.16 965.305 1022.77 943.32 1007.59C934.123 1002.49 925.784 998.133 926.568 1001.7C933.504 1033.2 932.877 1039.77 921.449 1061.51C915.175 1073.45 904.2 1086.94 892.794 1091.61C933.433 1087.39 953.152 1072.48 957.907 1058.32Z" fill="#407C59" stroke="#214E34" stroke-width="2"/>
<path d="M896.128 1089.67C971.073 1061.41 970.046 1012.5 926.941 1002.14C938.226 1033.78 921.7 1065.28 918.569 1069.7C914.766 1075.07 903.997 1084.51 896.128 1089.67Z" fill="#214E34" stroke="#214E34" stroke-width="2"/>
<path d="M441.75 1975.3C456.389 1978.28 477.94 1978.27 490.297 1954.59C494.232 1944.83 497.528 1936.02 494.088 1937.24C463.679 1947.99 457.082 1948.18 434.096 1939.51C421.477 1934.75 406.744 1925.52 400.7 1914.77C409.893 1954.59 427.112 1972.32 441.75 1975.3Z" fill="#407C59" stroke="#214E34" stroke-width="2"/>
<path d="M403.038 1917.84C440.302 1988.75 488.71 1981.71 493.693 1937.66C463.679 1952.75 430.385 1940.22 425.615 1937.66C419.822 1934.55 409.124 1925.02 403.038 1917.84Z" fill="#214E34" stroke="#214E34" stroke-width="2"/>
<path d="M139.874 2660.58C150.896 2650.5 163.572 2633.07 151.695 2609.14C146.124 2600.22 140.939 2592.37 139.899 2595.87C130.7 2626.78 126.968 2632.22 106.434 2645.71C95.1612 2653.11 79.0255 2659.59 66.7815 2658.15C104.379 2674.15 128.852 2670.66 139.874 2660.58Z" fill="#407C59" stroke="#214E34" stroke-width="2"/>
<path d="M70.6394 2658.07C149.893 2669.66 172.693 2626.39 140.009 2596.43C134.547 2629.58 104.827 2649.13 99.9461 2651.48C94.0199 2654.33 80.0217 2657.37 70.6394 2658.07Z" fill="#214E34" stroke="#214E34" stroke-width="2"/>
<path d="M158.35 1540.71C143.711 1537.73 122.161 1537.74 109.804 1561.42C105.869 1571.18 102.573 1579.99 106.013 1578.77C136.422 1568.01 143.019 1567.83 166.005 1576.5C178.624 1581.25 193.357 1590.49 199.401 1601.23C190.208 1561.42 172.989 1543.68 158.35 1540.71Z" fill="#407C59" stroke="#214E34" stroke-width="2"/>
<path d="M197.063 1598.16C159.798 1527.26 111.391 1534.29 106.408 1578.35C136.422 1563.26 169.716 1575.78 174.486 1578.35C180.279 1581.46 190.977 1590.99 197.063 1598.16Z" fill="#214E34" stroke="#214E34" stroke-width="2"/>
<path d="M1268.21 357.352C1279.99 343.72 1239.1 288.457 1203.73 387.93C1222.28 367.545 1261.13 332.889 1268.21 357.352Z" fill="#214E34" stroke="#214E34" stroke-width="2"/>
<path d="M1447.37 1090.48C1459.16 1076.84 1418.26 1021.58 1382.9 1121.05C1401.44 1100.67 1440.3 1066.01 1447.37 1090.48Z" fill="#214E34" stroke="#214E34" stroke-width="2"/>
<path d="M1204.89 1468.02C1201.62 1485.74 1264.85 1512.72 1245.03 1409.02C1239.35 1435.99 1223.37 1485.54 1204.89 1468.02Z" fill="#214E34" stroke="#214E34" stroke-width="2"/>
<path d="M1072.03 828.634C1083.82 815.002 1042.93 759.739 1007.56 859.212C1026.1 838.827 1064.96 804.171 1072.03 828.634Z" fill="#214E34" stroke="#214E34" stroke-width="2"/>
<path d="M333.005 2114.55C328.889 2131.73 261.511 2130.75 320.502 2045.74C314.869 2072.15 309.483 2122.9 333.005 2114.55Z" fill="#214E34" stroke="#214E34" stroke-width="2"/>
<path d="M36.5143 3033.67C32.3986 3050.85 -34.98 3049.88 24.0113 2964.86C18.3781 2991.27 12.992 3042.02 36.5143 3033.67Z" fill="#214E34" stroke="#214E34" stroke-width="2"/>
<path d="M55.0672 2497.82C57.487 2515.32 -5.62456 2538.93 18.373 2438.27C22.7423 2464.93 36.198 2514.16 55.0672 2497.82Z" fill="#214E34" stroke="#214E34" stroke-width="2"/>
<path d="M121.044 1451.24C116.653 1433.04 180.724 1401.5 165.998 1510.17C158.589 1482.52 139.224 1432.02 121.044 1451.24Z" fill="#214E34" stroke="#214E34" stroke-width="2"/>
<path d="M645.498 1215.04C658.137 1201.23 720.093 1236.75 621.74 1285.26C640.531 1263.66 671.591 1219.39 645.498 1215.04Z" fill="#214E34" stroke="#214E34" stroke-width="2"/>
<path d="M242.309 2758.52C224.688 2742.8 285.81 2679.06 338.672 2793.79C310.956 2770.28 252.881 2730.31 242.309 2758.52Z" fill="#214E34" stroke="#214E34" stroke-width="2"/>
<path d="M76.5854 2215.65C54.742 2206.67 91.2149 2126.25 179.192 2216.9C145.239 2203.93 77.1829 2185.52 76.5854 2215.65Z" fill="#214E34" stroke="#214E34" stroke-width="2"/>
<path d="M1355.94 1606.85C1370.48 1595.05 1426.52 1639.31 1322.1 1672.8C1343.87 1654.21 1381.11 1614.99 1355.94 1606.85Z" fill="#214E34" stroke="#214E34" stroke-width="2"/>
<path d="M1475.69 1239.66C1460.92 1243.69 1449.39 1253.65 1445.48 1258.13" stroke="#214E34" stroke-width="10" stroke-linecap="round"/>
<path d="M1391.2 1317.01C1418.25 1290.24 1423.28 1311.7 1443.46 1292.27C1459.45 1276.86 1458.07 1260.08 1443.43 1246.24C1431.13 1234.61 1393.29 1237.8 1391.2 1317.01Z" fill="#407C59" stroke="#214E34" stroke-width="2"/>
<path d="M1441.16 1265.37C1421.24 1265.84 1405.49 1284.89 1398.51 1298.7" stroke="#214E34" stroke-width="2" stroke-linecap="round"/>
<path d="M157.078 2015.66C170.336 2004.89 156.733 1988.04 148.274 1980.96" stroke="#214E34" stroke-width="10" stroke-linecap="round"/>
<path d="M151.033 1905.37C146.839 1941.13 165.762 1932.38 163.034 1958.74C160.871 1979.64 147.557 1988.39 128.706 1985.53C112.873 1983.14 93.2041 1953.07 151.033 1905.37Z" fill="#407C59" stroke="#214E34" stroke-width="2"/>
<path d="M141.645 1972.7C130.395 1957.57 135.42 1934.73 141.645 1921.49" stroke="#214E34" stroke-width="2" stroke-linecap="round"/>
<path d="M295.237 1717.56C289.095 1750.83 269.133 1748.27 268.621 1730.36C268.11 1712.44 309.056 1689.92 324.923 1695.55" stroke="#214E34" stroke-width="10" stroke-linecap="round"/>
<path d="M388.103 1713.05C353.189 1704.26 359.414 1724.16 333.63 1718.03C313.188 1713.18 306.238 1698.84 311.509 1680.52C315.937 1665.13 348.301 1649.53 388.103 1713.05Z" fill="#407C59" stroke="#214E34" stroke-width="2"/>
<path d="M322.556 1695.02C339.016 1685.82 361.01 1693.77 373.337 1701.66" stroke="#214E34" stroke-width="2" stroke-linecap="round"/>
<path d="M105.27 2818.52C124.872 2848.72 133.849 2829.9 148.579 2851.93C160.257 2869.4 155.595 2884.63 139.266 2894.47C125.551 2902.74 91.216 2892.15 105.27 2818.52Z" fill="#407C59" stroke="#214E34" stroke-width="2"/>
<path d="M141.032 2876.33C122.714 2871.87 112.001 2851.08 108.336 2836.92" stroke="#214E34" stroke-width="2" stroke-linecap="round"/>
<path d="M42.8861 2355.18C33.734 2370.16 23.7499 2384.31 13.7658 2373.49C5.77856 2364.84 17.6485 2353.24 24.5819 2348.53" stroke="#214E34" stroke-width="10" stroke-linecap="round"/>
<path d="M120.391 2369.72C85.4762 2360.93 91.7015 2380.83 65.9172 2374.71C45.4749 2369.85 38.5254 2355.52 43.7965 2337.19C48.224 2321.8 80.5878 2306.2 120.391 2369.72Z" fill="#407C59" stroke="#214E34" stroke-width="2"/>
<path d="M54.8432 2351.69C71.3036 2342.49 93.2973 2350.44 105.624 2358.33" stroke="#214E34" stroke-width="2" stroke-linecap="round"/>
<path d="M1220.84 451.601C1211.07 437.142 1181 461.113 1167.18 474.906" stroke="#214E34" stroke-width="10" stroke-linecap="round"/>
<path d="M1220.13 525.752C1224.32 489.992 1205.4 498.745 1208.13 472.384C1210.29 451.485 1223.6 442.735 1242.45 445.587C1258.29 447.982 1277.96 478.049 1220.13 525.752Z" fill="#407C59" stroke="#214E34" stroke-width="2"/>
<path d="M1229.52 458.419C1240.77 473.549 1235.74 496.387 1229.52 509.633" stroke="#214E34" stroke-width="2" stroke-linecap="round"/>
<path d="M1261.02 1572.88C1253.49 1585.67 1246.34 1586.47 1243.71 1585.27" stroke="#214E34" stroke-width="10" stroke-linecap="round"/>
<path d="M1167.52 1601.27C1202.79 1594.05 1188.55 1578.82 1214.44 1573.16C1234.97 1568.67 1247.45 1578.57 1250.64 1597.37C1253.33 1613.15 1230.93 1641.25 1167.52 1601.27Z" fill="#407C59" stroke="#214E34" stroke-width="2"/>
<path d="M1234.4 1589.1C1223.56 1604.52 1200.29 1606.9 1185.77 1605.14" stroke="#214E34" stroke-width="2" stroke-linecap="round"/>
<path d="M410.15 1279.44C416.571 1269.92 411.042 1262.79 407.475 1260.41" stroke="#214E34" stroke-width="10" stroke-linecap="round"/>
<path d="M414.259 1179.72C410.065 1215.48 428.989 1206.73 426.26 1233.09C424.097 1253.99 410.783 1262.74 391.933 1259.89C376.099 1257.49 356.431 1227.43 414.259 1179.72Z" fill="#407C59" stroke="#214E34" stroke-width="2"/>
<path d="M404.574 1252.69C393.325 1237.56 398.349 1214.73 404.574 1201.48" stroke="#214E34" stroke-width="2" stroke-linecap="round"/>
</svg>
